<svg xmlns="http://www.w3.org/2000/svg" width="16" height="16" fill="none"><path fill="#212431" stroke="#555B77" d="M2.5 8a5.5 5.5 0 1 1 11 0 5.5 5.5 0 0 1-11 0Z"/><path fill="#FFCB6B" fill-rule="evenodd" d="M9.585 6.385a.4.4 0 0 0 .295-.125.4.4 0 0 0 .123-.292.4.4 0 0 0-.123-.297.4.4 0 0 0-.295-.12.4.4 0 0 0-.29.12.4.4 0 0 0-.118.297q0 .175.118.297.117.12.29.12" clip-rule="evenodd"/><path fill="#fff" fill-rule="evenodd" d="M9.188 6.75h.795v3.063h-.795zM7.73 8.781H6.65l-.001.001-.296 1.031H5.62l1.04-3.625v-.396h.99l1.182 4.02h-.816zm-.153-.698L7.18 6.5l-.398 1.583z" clip-rule="evenodd"/></svg>