<svg xmlns="http://www.w3.org/2000/svg" width="16" height="16" fill="none"><path fill="#FFCB6B" fill-rule="evenodd" d="M11.156 7.015c-.016-.09.34.085-.177-.481zm.622.504q-.024-.136-.8-.985-.012-.166.547-.476l1.055-.918q.353-.45.42-1.441l-.014-.155q-.06-.699-1.026-1.133Q11.39 2.03 9.91 2q-1.23.104-3.202.859-.542.389-1.236.771l.007.08a.3.3 0 0 0 .124-.048q.08-.005.087.067l.082-.045.04-.002.002.038q.004.058-.863.664l.044.071-.04.003-.089-.031q.003.036-.123.047l.005.044.096.104a.4.4 0 0 1-.13-.026q-.281.024-.552.402l.046.071q.236-.212.275-.216l.01.117a.4.4 0 0 0-.123.047l.1.148q.284-.304.627-.522.17.044.176.104l.087-.008q.93-.682 1.844-.985l.007.08q-.17.25-.231.257a.25.25 0 0 0 .06.15q.014.155-.828 2.069Q4.303 10.759 3 12.889a.3.3 0 0 0 .05.114q.322-.076.407-.152l.046-.005.007.08.08-.006.081-.046q.003.037.085.03l.008.081q.01.12-.136.363-.13.145-.279.614l.003.038.079-.008a5 5 0 0 0 .79-1.126q1.513-.438 2.316-.863c.537-.044.946-.187 1.224-.416l-.004-.043-.202.059-.046.005-.004-.043c.394-.06.667-.145.818-.265q1.152-.877 1.741-1.244 1.21-.88 1.57-1.71zM4.651 4.798l-.04.004-.007-.113.166-.022.002.058q-.04.004-.12.073m-.811 7.978a.5.5 0 0 0-.257-.051l-.01-.117q-.007-.07.08-.088.08-.007.088.11.21-.255.23-.259l.09.037q-.043.355-.221.368m8.67-8.966q-.063.006-.241-.37l-.007-.075q.115-.01.24.373zm-.116-.887-.033.078-1.177-.485q1.178.039 1.21.407M7.423 7.182l-.167.021-.007-.113.167-.021zm-.136-2.575.042-.001.01.117c-.038 0-.09.059-.153.167l-.006-.08c.074-.087.113-.155.107-.203m-.29.814.037.156-.1.002-.036-.155zm-.241.292.08-.008q-.012.194-.109.203l-.04.002q.076-.13.069-.197m-.138.404.047-.005.002.038-.074.125-.08.006-.002-.039q.118-.008.107-.125m-.08.365-.04.194-.069.003-.027-.193zm-1.405 3.796q-.08.4-.172.406l-.001-.038q-.022-.197.173-.368m-.19.53.005.042q.012.087-.13.093l-.005-.042q-.013-.074.13-.094m-.131 1.107.126-.017.004.06a.3.3 0 0 0-.122.065l-.079.01a.11.11 0 0 1 .07-.118m3.564-1.093q-1.055.515-1.24.699-1.142.39-1.132.487c-.676.264-1.121.46-1.335.58a.5.5 0 0 1-.22-.057c-.01-.136.052-.244.183-.333a.7.7 0 0 1 .34.052q.188-.095.655-.212l-.008-.08-.25.021q.046-.064.725-.336l.125-.01.002.037c-.214.02-.333.08-.358.192q.007.075.087.067.242-.151.237-.176.46-.088 2.535-1.311l.007.072c.003.038-.115.137-.353.308m-2.123.69a.82.82 0 0 0 .519-.237q.088-.008.092.067c-.099.01-.29.09-.565.246l-.042.003zm3.426-2.6-1.063.832c-.79.512-1.212.77-1.276.773q-1.886 1.026-2.342 1.064l-.045.006q.055-.21 1.68-3.399.715-.061 2.251-.66l.25-.021q.778-.066 1.161.293l.014.154q-.286.818-.63.957M7.604 7.78l.17-.037.002.097-.17.038zm2.399-.425.126-.012q.174.081.18.145l.002.038q-.165.014-.308-.171m.34-1.91q-.165.195-.91.667c-.164.015-.773.247-1.828.705a.3.3 0 0 0-.168-.03l-.007-.073q-.018-.223.205-.567.122-.641.27-.732l.877-1.954q-.012-.182.564-.278l.125-.013.01.112q.568-.085.705-.098c.699-.06 1.062.082 1.09.416l.08-.006-.016-.198.086-.007q.307.168.33.406.014.165-.178.409-.08.005-.09-.11l-.085.008-.02.238q-.532.783-.77.806-.217.294-.27.298m.54 1.367q-.11-.072-.175-.067l-.008-.117.079-.007.175.102q.011.082-.072.09m.558.655q.12.047.136.095l-.04.01.003.002-.024.004-.06.046zm.054.408-.008-.077.127-.057.01.075z" clip-rule="evenodd"/></svg>