<svg xmlns="http://www.w3.org/2000/svg" width="32" height="32"><defs><linearGradient id="a" x1="50%" x2="50%" y1="0%" y2="100%"><stop offset="0%" stop-color="#EA7D7F"/><stop offset="100%" stop-color="#D14748"/></linearGradient><filter id="b" width="141.7%" height="131.2%" x="-20.8%" y="-15.6%" filterUnits="objectBoundingBox"><feOffset dx="-1" in="SourceAlpha" result="shadowOffsetOuter1"/><feColorMatrix in="shadowOffsetOuter1" result="shadowMatrixOuter1" values="0 0 0 0 0 0 0 0 0 0 0 0 0 0 0 0 0 0 0.2 0"/><feMerge><feMergeNode in="shadowMatrixOuter1"/><feMergeNode in="SourceGraphic"/></feMerge></filter></defs><g fill="none" fill-rule="evenodd"><path fill="url(#a)" d="m27.866 15.716-1.011-.613a.6.6 0 0 0-.019-.145.6.6 0 0 1-.018-.145l.866-.828a.3.3 0 0 0 .09-.145.8.8 0 0 0 .018-.18 1 1 0 0 0-.09-.145.33.33 0 0 0-.127-.109l-1.117-.396a.6.6 0 0 1-.053-.145 1 1 0 0 1-.019-.146l.686-.973a.6.6 0 0 0 .053-.161.26.26 0 0 0-.018-.161.6.6 0 0 0-.109-.146.24.24 0 0 0-.18-.071l-1.154-.18-.146-.288.506-1.044a.4.4 0 0 0 .018-.199.7.7 0 0 0-.053-.161.23.23 0 0 0-.127-.108.5.5 0 0 0-.161-.037l-1.192.037a1 1 0 0 1-.09-.109 1 1 0 0 0-.09-.108l.252-1.153q.037-.108 0-.18l-.072-.145a.3.3 0 0 0-.161-.09 1 1 0 0 0-.162-.018l-1.154.288a.5.5 0 0 1-.127-.09.5.5 0 0 0-.127-.09l.072-1.19a.3.3 0 0 0-.054-.18.36.36 0 0 0-.127-.108.22.22 0 0 0-.161-.071.35.35 0 0 0-.162.037l-1.082.468a2 2 0 0 1-.127-.072 2 2 0 0 0-.127-.071l-.18-1.153a1 1 0 0 0-.09-.145.33.33 0 0 0-.127-.109.6.6 0 0 0-.18-.036.35.35 0 0 0-.18.071l-.938.685a.6.6 0 0 0-.145-.053 1 1 0 0 0-.146-.019l-.397-1.116a.6.6 0 0 0-.108-.145.23.23 0 0 0-.18-.071q-.072-.038-.162 0a.5.5 0 0 0-.162.108l-.794.865a.6.6 0 0 1-.145-.019.6.6 0 0 0-.146-.018l-.614-1.01a1.4 1.4 0 0 0-.145-.127.28.28 0 0 0-.18-.053.25.25 0 0 0-.146.053q-.073.053-.145.127l-.614 1.01a.6.6 0 0 0-.146.018.6.6 0 0 1-.145.019l-.829-.865a.24.24 0 0 0-.127-.108q-.09-.038-.161 0a.24.24 0 0 0-.18.071.6.6 0 0 0-.109.145l-.397 1.116a.6.6 0 0 0-.146.019 1 1 0 0 0-.145.053l-.974-.685a.22.22 0 0 0-.162-.071.35.35 0 0 0-.288.145 1 1 0 0 0-.09.145l-.18 1.153a2 2 0 0 0-.127.071 2 2 0 0 1-.127.072L9.67 6.02a.35.35 0 0 0-.162-.037.22.22 0 0 0-.161.071.4.4 0 0 0-.127.109.28.28 0 0 0-.053.18l.071 1.19a.5.5 0 0 0-.127.089.5.5 0 0 1-.127.09L7.83 7.424a1 1 0 0 0-.162.018.3.3 0 0 0-.161.09.3.3 0 0 0-.09.145.3.3 0 0 0 .018.18l.252 1.153a1 1 0 0 0-.09.108 1 1 0 0 1-.09.109L6.316 9.19a.4.4 0 0 0-.162.037.24.24 0 0 0-.127.108.22.22 0 0 0-.072.161q0 .09.037.199l.506 1.044-.146.288-1.19.18q-.072 0-.146.071a.5.5 0 0 0-.109.146.26.26 0 0 0-.018.161q.015.087.053.161l.686.973a.3.3 0 0 1-.037.146.3.3 0 0 0-.037.145l-1.118.396a.4.4 0 0 0-.127.109 1 1 0 0 0-.09.145q0 .108.019.18a.34.34 0 0 0 .09.145l.866.828a.6.6 0 0 1-.019.145.6.6 0 0 0-.018.145l-1.012.613a.24.24 0 0 0-.108.127.4.4 0 0 0-.037.162.4.4 0 0 0 .037.18q.037.07.108.108l1.012.648q0 .071.018.145.019.074.019.145l-.866.793a.3.3 0 0 0-.09.162 1 1 0 0 0-.019.161.4.4 0 0 0 .09.161.5.5 0 0 0 .127.09l1.118.434q0 .071.037.145.036.075.037.145l-.686.936a.6.6 0 0 0-.053.162.26.26 0 0 0 .018.16q.037.11.109.162a.24.24 0 0 0 .145.053l1.191.217a.4.4 0 0 1 .072.108l.072.146-.506 1.08a.35.35 0 0 0-.037.162q0 .09.072.162a.24.24 0 0 0 .127.108q.09.037.161.037l1.191-.037a.5.5 0 0 0 .09.127l.09.09-.251 1.152a.4.4 0 0 0-.019.199q.02.09.09.127a.5.5 0 0 0 .162.108q.09.038.162 0l1.154-.288q.072.07.127.108t.09.108l-.037 1.153q0 .108.053.18t.127.145a.6.6 0 0 0 .162.053q.09.017.161-.018l1.083-.505q.072.037.127.071.056.035.127.072l.18 1.153a.7.7 0 0 0 .09.18.36.36 0 0 0 .127.108h.162l.161-.072.974-.684a.6.6 0 0 0 .146.053q.075.015.145.053l.397 1.08q.037.11.109.162a.3.3 0 0 0 .18.053q.072.037.162 0a.4.4 0 0 0 .127-.071l.828-.865h.289l.614 1.01q.072.072.145.127a.23.23 0 0 0 .146.053.3.3 0 0 0 .18-.053q.072-.053.145-.127l.614-1.01h.289l.794.865q.072.036.162.071t.161 0a.3.3 0 0 0 .18-.053q.072-.053.072-.161l.434-1.081a.6.6 0 0 1 .145-.053.6.6 0 0 0 .146-.053l.937.684a.35.35 0 0 0 .18.072h.18a.4.4 0 0 0 .127-.109.6.6 0 0 0 .09-.18L21 25.66a2 2 0 0 0 .127-.072 2 2 0 0 1 .127-.071l1.083.505q.072.036.162.018a.7.7 0 0 0 .161-.053 1.4 1.4 0 0 0 .127-.145.28.28 0 0 0 .053-.18l-.071-1.153a1 1 0 0 1 .127-.108 1 1 0 0 0 .127-.108l1.154.288q.072.038.162 0a.5.5 0 0 0 .161-.108.4.4 0 0 0 .072-.127.3.3 0 0 0 0-.199l-.252-1.152.09-.09.09-.127 1.191.037a.4.4 0 0 0 .162-.037.24.24 0 0 0 .127-.108.6.6 0 0 0 .053-.162.26.26 0 0 0-.018-.161l-.506-1.081.072-.146.071-.108 1.154-.217a.3.3 0 0 0 .18-.053.32.32 0 0 0 .109-.161.24.24 0 0 0 .019-.161.7.7 0 0 0-.054-.162l-.685-.936q0-.071.018-.145a1 1 0 0 1 .053-.145l1.118-.434a.5.5 0 0 0 .127-.09.4.4 0 0 0 .09-.161 1 1 0 0 0-.019-.161.3.3 0 0 0-.09-.162l-.866-.793v-.145l.037-.145 1.012-.648a.25.25 0 0 0 .108-.109.4.4 0 0 0 .037-.18.4.4 0 0 0-.037-.16.24.24 0 0 0-.108-.128zm-6.746 8.358a.72.72 0 0 1-.45-.325.8.8 0 0 1-.127-.54.72.72 0 0 1 .326-.45.67.67 0 0 1 .54-.09q.285.072.45.307.165.236.09.558a.68.68 0 0 1-.307.434.78.78 0 0 1-.524.108zm-.36-2.306a.6.6 0 0 0-.487.072.53.53 0 0 0-.27.396l-.36 1.692a9.3 9.3 0 0 1-1.75.558 9.2 9.2 0 0 1-3.805 0 7.8 7.8 0 0 1-1.768-.594l-.36-1.693a.7.7 0 0 0-.289-.396.53.53 0 0 0-.468-.072l-1.48.289a6 6 0 0 1-.397-.434q-.18-.216-.36-.468h7.251l.037-.071v-2.523q0-.07-.037-.09a.2.2 0 0 0-.072-.018h-2.128V16.83h2.272q.18 0 .685.161.506.162.723 1.026.072.252.198.918.127.666.236.954.072.325.45.775t.813.45h3.68q-.18.251-.38.486-.197.235-.415.486l-1.514-.325zm-9.92 2.269a.84.84 0 0 1-.54-.109.56.56 0 0 1-.288-.433.66.66 0 0 1 .09-.54.73.73 0 0 1 .45-.325.65.65 0 0 1 .54.09.61.61 0 0 1 .289.45.66.66 0 0 1-.09.54.73.73 0 0 1-.45.325zM8.135 13.014a.7.7 0 0 1 0 .54.66.66 0 0 1-.36.396.75.75 0 0 1-.56 0 .66.66 0 0 1-.378-.36.65.65 0 0 1 .36-.935.716.716 0 0 1 .94.36zm-.83 1.98 1.515-.684a.6.6 0 0 0 .342-.36.67.67 0 0 0-.018-.504l-.29-.722h1.227v5.62H7.555a12 12 0 0 1-.235-1.189 8.4 8.4 0 0 1-.09-1.224 6 6 0 0 1 .071-.936zm6.71-.539v-1.657h2.957q.146 0 .614.18t.469.684q0 .434-.416.614t-.884.18h-2.743zM24.8 15.931q0 .18-.018.341-.019.162-.019.307h-.902q-.072 0-.09.037a.25.25 0 0 0-.019.108v.433q0 .722-.341.955a1.5 1.5 0 0 1-.705.27 1.2 1.2 0 0 1-.648-.109q-.324-.145-.36-.36-.217-1.152-.56-1.567a6 6 0 0 0-.883-.846 5.7 5.7 0 0 0 1.226-1.026q.576-.63.577-1.46 0-.9-.487-1.459-.488-.558-.885-.846-.614-.396-1.172-.505-.559-.108-.74-.108H9.47a8.4 8.4 0 0 1 2.2-1.8 8.3 8.3 0 0 1 2.706-.974l1.117 1.153q.18.18.45.198t.45-.198l1.226-1.153a8.6 8.6 0 0 1 3.516 1.494 8.9 8.9 0 0 1 2.507 2.755l-.828 1.91a.54.54 0 0 0-.037.504q.108.254.36.36l1.623.721q0 .218.018.434.02.216.019.433zm-9.306-9.582A.7.7 0 0 1 16 6.133q.288 0 .506.216.18.218.18.524a.6.6 0 0 1-.217.486.7.7 0 0 1-.506.217.7.7 0 0 1-.506-.217.65.65 0 0 1-.198-.523.65.65 0 0 1 .235-.487m8.332 6.7a.65.65 0 0 1 .397-.397.6.6 0 0 1 .54.037.6.6 0 0 1 .379.378q.09.27-.018.558a.66.66 0 0 1-.38.36.75.75 0 0 1-.558 0 .66.66 0 0 1-.36-.397.7.7 0 0 1 0-.539"/><g fill="#F4BF75" fill-rule="nonzero" filter="url(#b)" transform="translate(20 16)"><path d="M10.5 5.333h-.75V3.81C9.75 1.707 8.07 0 6 0S2.25 1.707 2.25 3.81v1.523H1.5c-.825 0-1.5.686-1.5 1.524v7.62C0 15.313.675 16 1.5 16h9c.825 0 1.5-.686 1.5-1.524V6.857c0-.838-.675-1.524-1.5-1.524M6 12.19c-.825 0-1.5-.685-1.5-1.523S5.175 9.143 6 9.143s1.5.686 1.5 1.524S6.825 12.19 6 12.19m2.325-6.857h-4.65V3.81c0-1.303 1.043-2.362 2.325-2.362S8.325 2.507 8.325 3.81z"/></g></g></svg>