<svg xmlns="http://www.w3.org/2000/svg" width="16" height="16" fill="none"><path fill="#3965BD" fill-rule="evenodd" d="m7.87 10.269.231 1.394c-.147.08-.384.154-.7.223A5 5 0 0 1 6.263 12c-1.249-.023-2.187-.4-2.814-1.12Q2.5 9.791 2.5 8.12q.044-1.978 1.13-3.04C4.377 4.366 5.303 4 6.423 4c.424 0 .79.04 1.096.109q.457.1.678.228L7.87 5.76l-.6-.194a3.2 3.2 0 0 0-.785-.086q-.985-.007-1.622.629c-.43.417-.65 1.057-.667 1.908 0 .777.209 1.383.61 1.829.401.44.967.668 1.69.674l.752-.069c.243-.045.446-.108.622-.182m-.718-2.84h1.13V6.286h1.131v1.143h1.13V8.57h-1.13v1.143h-1.13V8.571h-1.13zm5.087 0h-1.13V8.57h1.13v1.143h1.13V8.571H14.5V7.43h-1.13V6.286h-1.13z" clip-rule="evenodd"/></svg>