<svg xmlns="http://www.w3.org/2000/svg" width="32" height="32"><g fill="none" fill-rule="evenodd"><path fill="#13ADC7" fill-rule="nonzero" d="M4 21.056V10h3.904q2.32 0 3.968 1.64t1.648 3.944q0 2.32-1.648 3.968T7.904 21.2H4zm2.496-2.064h1.536q1.344 0 2.232-.936t.888-2.312q0-1.36-.888-2.296t-2.232-.936H6.496z"/><path fill="#8251A8" d="m15.414 24.01-4.992-10.767q-.08-.16.008-.288.088-.129.264-.128h2.128q.209 0 .272.176l2.64 5.84h.096l2.64-5.84q.064-.177.272-.176h2.128q.175 0 .264.128.088.127.008.288L16.118 24.01q-.096.176-.272.176h-.16q-.176 0-.272-.176"/><path fill="#EE9D5C" d="M19.464 19.856q-1.68-1.68-1.68-4.08t1.688-4.088T23.56 10q2.24 0 3.872 1.488.24.225.016.448L26.2 13.232q-.208.192-.4 0a3.13 3.13 0 0 0-2.16-.816q-1.344 0-2.24.968t-.896 2.328q0 1.344.904 2.296t2.248.952q1.248 0 2.144-.768.225-.192.416.016l1.248 1.328q.208.209-.016.432-1.6 1.552-3.888 1.552-2.4 0-4.096-1.664"/></g></svg>