<svg xmlns="http://www.w3.org/2000/svg" width="16" height="16" fill="none"><path fill="#FFA000" fill-rule="evenodd" d="M13.6 3.375H8L6.6 2H2.4c-.77 0-1.393.619-1.393 1.375L1 11.625C1 12.381 1.63 13 2.4 13H6v-1.375H2.4V4.75h11.2V5H15v-.25c0-.756-.63-1.375-1.4-1.375" clip-rule="evenodd"/><path fill="#A9EFA3" fill-rule="evenodd" d="M10.97 7a.3.3 0 0 0-.159.042L8.16 8.55a.32.32 0 0 0-.16.28v3.026c0 .113.06.217.16.273l2.651 1.514c.1.056.22.056.32 0l2.65-1.514a.31.31 0 0 0 .16-.273V8.83a.32.32 0 0 0-.16-.279l-2.65-1.508A.3.3 0 0 0 10.97 7" clip-rule="evenodd"/><mask id="a" width="6" height="7" x="8" y="7" maskUnits="userSpaceOnUse" style="mask-type:luminance"><path fill="#fff" fill-rule="evenodd" d="M10.97 7a.3.3 0 0 0-.159.042L8.16 8.55a.32.32 0 0 0-.16.28v3.026c0 .113.06.217.16.273l2.651 1.514c.1.056.22.056.32 0l2.65-1.514a.31.31 0 0 0 .16-.273V8.83a.32.32 0 0 0-.16-.279l-2.65-1.508A.3.3 0 0 0 10.97 7" clip-rule="evenodd"/></mask><g mask="url(#a)"><path fill="#2ECC71" fill-rule="evenodd" d="m10.699 6.432 3.466 6.003-2.979 1.72L7.72 8.152z" clip-rule="evenodd"/></g></svg>