<svg xmlns="http://www.w3.org/2000/svg" width="16" height="16" fill="none"><path fill="#80CBC4" fill-rule="evenodd" d="M8 3.375h5.6c.77 0 1.4.619 1.4 1.375V5h-1.4v-.25H2.4v6.875H6V13H2.4c-.77 0-1.4-.619-1.4-1.375l.007-8.25C1.007 2.619 1.63 2 2.4 2h4.2z" clip-rule="evenodd"/><path fill="#80CBC4" fill-rule="evenodd" d="M13.257 9.786c.04 0 .054.01.054.058v.857q.003.786-.003 1.571c-.01.93-.579 1.579-1.368 1.708a1.57 1.57 0 0 1-1.697-.966c-.083-.2-.133-.41-.141-.63-.015-.347-.012-.696-.01-1.044l.002-.505c0-.067-.015-.083-.076-.083h-.494c-.274-.001-.548-.003-.822.004s-.481-.233-.475-.523q.007-.455.004-.911-.002-.273 0-.547c0-.058-.014-.076-.067-.072q-.087.003-.174.002l-.074-.001V8.69c.04-.09.094-.17.149-.25l.063-.095a68 68 0 0 1 .476-.737c.052-.081.07-.081.122 0l.662 1.024.007.01c.012.018.025.037.013.06-.011.02-.033.019-.053.018h-.159c-.063.001-.07.007-.07.077v.725l.001.06v.119c0 .043.013.066.055.066h.833c.057 0 .057-.038.057-.08V8.595a3.6 3.6 0 0 1 .035-.644q.172-.97 1.02-1.32c.127-.053.261-.08.398-.092h.253q.036.015.073 0h.012l.082.018q.076.014.15.036c.622.18 1.021.603 1.172 1.293.046.21.044.424.043.638v.143c0 .03-.014.036-.038.036h-.887c-.035 0-.038-.019-.038-.049v-.097l-.002-.292c-.008-.399-.254-.664-.62-.673a.66.66 0 0 0-.311.062c-.24.116-.351.327-.359.604q-.005.25-.003.5v3.406c0 .106.005.21.031.313a.61.61 0 0 0 .507.462.66.66 0 0 0 .536-.144.6.6 0 0 0 .217-.472q.006-.494.005-.986l.001-.538c.001-.047-.022-.047-.05-.047h-.164q-.243 0-.485.002c-.05 0-.065-.015-.064-.07q.004-.416.002-.832c0-.047.006-.068.057-.068q.806.003 1.612.001m2.674 2.044H16c.004.021-.004.033-.011.044l-.006.01-.428.663-.25.388c-.021.032-.036.05-.064.005l-.435-.673-.255-.393-.002-.004a.04.04 0 0 1-.007-.038l.064-.001q.075-.004.148.002c.06.005.072-.018.072-.08a58 58 0 0 1 0-.93c0-.059-.013-.075-.067-.075-.296 0-.295 0-.287.001l-.286.002c-.064 0-.076-.02-.075-.085q.004-.415 0-.831c0-.045.01-.06.054-.06h1.097c.251.002.442.213.443.487q.002.746-.001 1.492c0 .06.014.082.07.078q.08-.005.158-.002" clip-rule="evenodd"/></svg>