<svg xmlns="http://www.w3.org/2000/svg" width="16" height="16" fill="none"><path fill="#C6FF00" fill-rule="evenodd" d="M8 3.375h5.6c.77 0 1.4.619 1.4 1.375v.518A2 2 0 0 0 14 5h-.4v-.25H2.4v6.875H5V13H2.4c-.77 0-1.4-.619-1.4-1.375l.007-8.25C1.007 2.619 1.63 2 2.4 2h4.2z" clip-rule="evenodd"/><rect width="8.556" height="8.556" x="6.222" y="6.222" fill="#FFCB6B" rx="1"/><path fill="#090A0F" d="M7.444 8.667h6.111v4.889H7.444z"/><path fill="#FFCB6B" d="M12.598 12.24c.377.503-.63.87-1.036.142l-.55.32.033.055q.313.525.97.614c.96.114 1.587-.498 1.247-1.367-.242-.497-.875-.59-1.245-.836-.217-.127-.172-.394.003-.502.135-.083.447-.094.608.24l.527-.34c-.416-.75-1.4-.6-1.694-.259-.401.471-.287.997.066 1.334.275.263.705.352 1.07.599m-2.492 1.062q.457-.186.529-.755c.004-.038.007-2.479.007-2.479h-.669l-.005 2.414c-.015.156-.109.268-.245.29-.233.038-.388-.03-.55-.333l-.544.33c.233.547.936.749 1.477.533m-2.441-6.24h5.67c.334 0 .602.27.602.603v5.67a.6.6 0 0 1-.602.602h-5.67a.6.6 0 0 1-.602-.602v-5.67a.6.6 0 0 1 .602-.602"/></svg>