<svg xmlns="http://www.w3.org/2000/svg" width="24" height="24"><path d="M12 1.982a10.12 10.12 0 0 0-10.12 10.12A10.12 10.12 0 0 0 12 22.22 10.12 10.12 0 0 0 22.12 12.1 10.12 10.12 0 0 0 12 1.983m1.254 2.422q1.365 0 2.213.78.857.776.857 2.013 0 1.334-.959 2.35-.96 1.015-2.207 1.015-.729 0-1.213-.357-.476-.357-.476-.88 0-.318.181-.563.191-.246.438-.246.238 0 .238.277 0 .245.182.38.182.136.42.136.634-.001 1.215-.866.587-.872.587-1.863 0-.698-.453-1.135Q13.825 5 13.111 5q-1.07 0-2.078.953-.999.952-1.635 2.506-.626 1.547-.627 2.945 0 1.286.555 2.047.555.754 1.477.754 1.554 0 2.974-2.2l1.493-.212q.277-.04.277.135 0 .08-.215.681-.213.603-.586 2.016 1.23-.714 1.904-1.58v.914q-.539.626-2.062 1.412-.319 2.11-1.406 3.26-1.088 1.159-2.444 1.16-.65 0-1.023-.303-.365-.3-.365-.832 0-1.477 2.865-2.865.3-1.07.586-1.928-.5.722-1.451 1.278-.952.554-1.77.554-1.333 0-2.22-1.15-.881-1.158-.881-2.928 0-1.865 1-3.531a7.75 7.75 0 0 1 2.625-2.674q1.626-1.008 3.15-1.008M12.03 16.592q-2.06 1.031-2.06 2.031 0 .532.508.533.999-.001 1.554-2.564" style="fill:#80cbc4;fill-opacity:1;stroke:none;stroke-opacity:1"/></svg>