<svg xmlns="http://www.w3.org/2000/svg" width="16" height="16" fill="none"><g fill="#FC8289"><path d="m10.12 5.474-.675 1.368c.222.206.378.477.44.785h.51c.058-.291.202-.553.407-.756z"/><path d="m8.877 6.511 1.243-2.52 1.24 2.536q.074-.023.147-.042L12.685 3H7.552l1.175 3.475zM8.45 8.74a.824.824 0 0 0 .688-1.277 1 1 0 0 0-.091-.117l-.004-.004a.6.6 0 0 0-.11-.095l-.004-.003-.036-.023-.006-.003-.04-.023h-.003l-.042-.023h-.003a.2.2 0 0 0-.04-.016l-.01-.003-.032-.014q-.004-.002-.013-.003l-.04-.013h-.003l-.045-.01-.013-.003-.036-.007q-.009 0-.016-.003l-.033-.003H8.39l-.036.003h-.013l-.04.007h-.01l-.045.01a.83.83 0 0 0-.626.801.836.836 0 0 0 .828.822m3.46-1.65h-.006l-.036-.003h-.043q-.023 0-.052.003h-.016l-.04.004c-.003 0-.01 0-.012.003l-.05.01h-.003l-.045.01-.013.003a.2.2 0 0 0-.04.013l-.01.003-.045.02-.046.02-.01.003a.2.2 0 0 0-.039.023q-.002 0-.003.003a.5.5 0 0 0-.085.059l-.003.003a.7.7 0 0 0-.206.239.824.824 0 0 0 .715 1.234c.454 0 .822-.37.822-.825 0-.4-.287-.736-.662-.812q-.031-.009-.072-.013M5.04 8.74a.824.824 0 0 0 0-1.65.824.824 0 0 0 0 1.65"/><path d="M11.827 9.378c-.68 0-1.25-.468-1.413-1.097h-.548a1.464 1.464 0 0 1-1.639 1.08q-.283.436-.678.808a4.5 4.5 0 0 1-1.566.976l-.134.049-.124-.066c-.685-.353-1.038-1.07-.914-1.763a1.3 1.3 0 0 1-.225-.06l-.036.076c-.209.432-.427.877-.506 1.355-.085.51-.12 1.443.597 1.94A1.73 1.73 0 0 0 5.653 13c.708 0 1.472-.38 2.28-.782.634-.314 1.286-.641 1.965-.808a8 8 0 0 1 .77-.138c.46-.065.898-.13 1.253-.337a1.44 1.44 0 0 0 .708-1.004c.046-.256.02-.514-.065-.753-.215.124-.466.2-.737.2"/></g></svg>