<svg xmlns="http://www.w3.org/2000/svg" width="32" height="32"><g fill="none" fill-rule="evenodd"><path fill="#888" d="M16.012 9.321h3.384c-1.247 2.04-2.625 4.286-4.001 6.538h-3.387c1.378-2.248 2.754-4.498 4.004-6.538"/><path fill="#7ACCEE" d="M8.003 9.321h3.386l-2.004 3.271q-.999 1.635-2.001 3.265l1.999 3.272q.998 1.634 2.004 3.266H8a828 828 0 0 1-2.004-3.266L4 15.857l1.999-3.266q1-1.636 2.004-3.27"/><path fill="#7ACCEE" d="M9.979 11.625H6.592q-.652 1.061-1.299 2.12L4 15.857h3.384c.429-.704.864-1.41 1.296-2.115q.647-1.058 1.299-2.117"/><path fill="#7ACCEE" d="M5.41 13.555h3.385l1.298-2.12c.432-.705.864-1.406 1.295-2.114H8.003c-.429.704-.864 1.411-1.296 2.116q-.647 1.058-1.298 2.118"/><path fill="#80CBC4" d="M8.002 9.319c1.38 2.252 2.76 4.5 4.007 6.538h3.387l-4.007-6.536z"/><path fill="#F4BF75" d="M19.396 9.321h-3.384l2.001 3.271a1720 1720 0 0 0 2.004 3.265l-2.004 3.272-2.001 3.266h3.387q1-1.63 2.001-3.266t2.004-3.272c-.672-1.088-1.336-2.175-2.004-3.266-.668-1.09-1.337-2.177-2.004-3.27"/><path fill="#80CBC4" d="M13.984 13.555H10.6q-.652-1.06-1.299-2.12c-.432-.705-.866-1.406-1.296-2.114h3.384c.429.704.864 1.411 1.296 2.116q.647 1.058 1.299 2.118"/><path fill="#9DBD58" d="M17.994 11.621h-3.39L13.31 13.74q-.652 1.059-1.3 2.118h3.386l1.303-2.12q.651-1.06 1.296-2.116"/><path fill="#9DBD58" d="M13.417 13.56h3.387l1.296-2.12 1.296-2.12h-3.384l-1.299 2.12z"/><path fill="#F4BF75" d="M21.995 13.56h-3.386l-1.301-2.119-1.296-2.12h3.384q.648 1.062 1.299 2.12c.432.705.866 1.416 1.3 2.118"/><path fill="#D14748" d="M23.99 9.321h-3.387q1.001 1.64 1.999 3.271a828 828 0 0 0 2.007 3.265q-1.005 1.638-2.004 3.272t-2.001 3.266h3.386q1.002-1.63 2.002-3.266t2.003-3.272l-2.004-3.266q-1.002-1.629-2.002-3.27"/><path fill="#D14748" d="M26.587 13.56H23.2q-.655-1.057-1.301-2.118l-1.296-2.12h3.386l1.296 2.12q.648 1.059 1.302 2.118m-4.572 6.536H25.4l1.296-2.117q.648-1.06 1.303-2.122h-3.39l-1.3 2.12z"/><path fill="#F4BF75" d="M17.423 20.096h3.386l1.296-2.118 1.299-2.12h-3.387q-.651 1.06-1.298 2.12z"/><path fill="#7ACCEE" d="M5.407 18.164h3.386c.429.707.864 1.413 1.296 2.118q.647 1.058 1.299 2.115H8q-.65-1.055-1.3-2.115c-.433-.705-.861-1.413-1.293-2.118"/></g></svg>