<svg xmlns="http://www.w3.org/2000/svg" width="32" height="32"><g fill="none" fill-rule="evenodd"><path fill="#6A9FB5" d="M13.096 15.572h5.774q1.203 0 2.053-.857t.85-2.045V7.23q0-1.187-.867-1.993a3.7 3.7 0 0 0-2.036-.973q-.734-.133-1.502-.199A18 18 0 0 0 15.867 4q-.768.034-1.47.082a9 9 0 0 0-1.3.182q-1.836.297-2.37 1.006t-.534 1.963v2.175h5.808v.726H8.025q-1.27 0-2.27.743-1.002.742-1.37 2.158-.368 1.617-.384 2.853-.018 1.237.384 2.95.333 1.286 1.085 2.093.752.809 2.019.808h1.97v-2.603q0-1.419 1.084-2.49 1.086-1.072 2.553-1.072zm-.367-7.618q-.469 0-.784-.329a1.06 1.06 0 0 1-.316-.757q0-.462.316-.775.316-.312.784-.312.434 0 .752.312.318.313.316.775 0 .428-.316.757-.317.33-.752.33"/><path fill="#343944" d="M24.678 10.13q1.269.002 1.918.825.65.822.95 2.076l.003-.002.102.423q.333 1.464.348 2.66a8 8 0 0 1-.45 2.72q-.435 1.318-1.02 2.11-.582.79-1.851.791h-8.679v.726h5.774v2.175q0 1.252-.902 1.93-.9.676-2.003 1.006-1.637.46-3.02.428a10.7 10.7 0 0 1-2.754-.428 5.6 5.6 0 0 1-2.036-1.039q-.867-.706-.867-1.894v-5.44q0-1.155.85-2.028t2.053-.874h5.774q1.436 0 2.537-1.071 1.103-1.072 1.103-2.556V10.13Zm-5.44 13.783q-.434 0-.768.329-.333.33-.333.758 0 .462.333.79.334.33.767.33.468 0 .784-.33.316-.328.316-.79 0-.43-.316-.758-.316-.33-.784-.33"/><path fill="#F4BF75" fill-rule="nonzero" d="M30.5 21.333h-.75V19.81c0-2.103-1.68-3.81-3.75-3.81s-3.75 1.707-3.75 3.81v1.523h-.75c-.825 0-1.5.686-1.5 1.524v7.62c0 .837.675 1.523 1.5 1.523h9c.825 0 1.5-.686 1.5-1.524v-7.619c0-.838-.675-1.524-1.5-1.524M26 28.19c-.825 0-1.5-.685-1.5-1.523s.675-1.524 1.5-1.524 1.5.686 1.5 1.524-.675 1.523-1.5 1.523m2.325-6.857h-4.65V19.81c0-1.303 1.043-2.362 2.325-2.362s2.325 1.059 2.325 2.362z"/></g></svg>