<svg xmlns="http://www.w3.org/2000/svg" width="16" height="16" fill="none"><path fill="#343944" stroke="#89DDFF" d="M2.5 8a5.5 5.5 0 1 1 11 0 5.5 5.5 0 0 1-11 0Z"/><path fill="#fff" fill-rule="evenodd" d="M7.19 5.776q.304.099.512.273.195.173.31.446.116.273.116.595 0 .333-.098.594a1.4 1.4 0 0 1-.268.447 1.8 1.8 0 0 1-.541.383q-.3.137-.762.161l-.225.006-.103.007V10.1H5.23V5.702l.407-.012q.41-.013.822-.013.428 0 .731.1m-.925 2.131h.17q.366-.014.579-.217.212-.204.212-.551a.78.78 0 0 0-.182-.527q-.183-.216-.536-.229l-.256-.006-.121.006v1.511zm3.64.135a2.2 2.2 0 0 1-.414-.186.23.23 0 0 1-.11-.198q0-.125.098-.192a.5.5 0 0 1 .28-.068q.207 0 .469.099.261.1.371.16v-.743q-.146-.075-.365-.149a1.6 1.6 0 0 0-.5-.074q-.596 0-.95.303a.98.98 0 0 0-.352.775q0 .285.207.495t.694.384q.28.099.377.223a.4.4 0 0 1 .098.248.25.25 0 0 1-.098.21q-.097.075-.329.075a1.5 1.5 0 0 1-.493-.099 2 2 0 0 1-.407-.185v.73q.182.1.426.18a1.8 1.8 0 0 0 .474.093q.695.013 1.041-.303.347-.317.347-.775a.97.97 0 0 0-.213-.6q-.2-.243-.65-.403" clip-rule="evenodd"/></svg>