<svg xmlns="http://www.w3.org/2000/svg" width="16" height="16" fill="none"><path fill="#FFCB6B" fill-rule="evenodd" d="M13.999 6.897c0 2.472-2.57 4.476-5.74 4.476S2.52 9.369 2.52 6.897 5.09 2.42 8.26 2.42s5.739 2.004 5.739 4.477m-5.75-.595c1.124 0 2.09.625 2.6 1.26.407.501.386.785.357 1.175-.008.114-.018.238-.017.379 0 1.703-.447 1.737-.89 1.77-.142.011-.284.022-.41.088-.414.204-.832.187-1.264.169a9 9 0 0 0-.376-.01h-.01q-.186 0-.369.009c-.434.017-.854.034-1.27-.172-.127-.066-.27-.076-.411-.087-.444-.033-.89-.067-.89-1.77 0-.14-.009-.262-.018-.375-.03-.39-.053-.673.355-1.176.507-.635 1.474-1.26 2.6-1.26zM4.58 7.356c.514 0 .93-.422.93-.942a.936.936 0 0 0-.93-.942.936.936 0 0 0-.93.942c0 .52.417.942.93.942m8.26-.942c0 .52-.416.942-.93.942a.936.936 0 0 1-.93-.942c0-.52.417-.942.93-.942s.93.421.93.942M8.176 7.809h.14v1.92l-.057-.005-.083.008zm0 1.923c-.129.02-.277.073-.43.129a6 6 0 0 1-.263.09 4 4 0 0 1-.296.086c-.116.031-.18.048-.12.058.163.007.336-.02.522-.049.204-.031.425-.066.67-.062.243-.004.463.03.666.062.187.029.361.056.528.05.056-.008 0-.024-.108-.052-.082-.023-.195-.053-.309-.094q-.131-.04-.263-.09a2.4 2.4 0 0 0-.457-.132v.1h-.14zm.04 3.288a.69.69 0 0 0 .687-.695.69.69 0 0 0-.687-.696.69.69 0 0 0-.686.696.69.69 0 0 0 .686.695m.617-.692a.62.62 0 0 1-.617.625.62.62 0 0 1-.616-.625.62.62 0 0 1 .616-.625c.34 0 .617.28.617.625m-.437-.2q.056.05.057.15 0 .099-.057.148a.3.3 0 0 1-.177.047h-.07v.152h-.12v-.544h.19q.12 0 .177.048m-.067.142q0 .046-.02.071-.02.027-.08.024h-.08v-.182h.067q.06 0 .087.02.025.02.026.067" clip-rule="evenodd"/><path fill="#AB633B" fill-rule="evenodd" d="M11.25 10.457a8.7 8.7 0 0 1-6.084 0c-.02-.007-.03-.017-.063-.03v.388c0 .172.14.371.303.432a8 8 0 0 0 5.603 0 .49.49 0 0 0 .293-.432v-.389c0 .01-.033.02-.053.03M6.283 2.942s-3.71.52-3.39 4.252c.017.19-.74-.807-1.326-1.111S1 4.796 1 4.796.99 3.084 3.36 2.577c2.366-.503 2.923.365 2.923.365m3.91 0s3.71.52 3.39 4.252c-.017.19.74-.807 1.326-1.111s.566-1.287.566-1.287.01-1.712-2.36-2.219c-2.366-.503-2.922.365-2.922.365m-1.08 4.994c.11.246-.27.648-.874.648-.603 0-.983-.402-.873-.648.107-.254.49-.335.873-.338.384.003.767.084.874.338" clip-rule="evenodd"/></svg>