<svg xmlns="http://www.w3.org/2000/svg" width="24" height="24"><path d="M11.631 5.837A11.29 7.632 1.132 0 0 .905 11.408q-.018.029-.033.058c-.047.076-.057.163-.075.248a11.29 7.632 1.132 0 0-.275 1.757 11.29 7.632 1.132 0 0 7.237 7.077V8.792h4.594q.942 0 1.62.127.678.128 1.27.553.6.425.949 1.104.357.672.358 1.69 0 1.402-.552 2.286-.542.884-1.555 1.469l2.845 4.346a10.182 7.631 1.725 0 0 3.27-1.978 11.29 7.632 1.132 0 0 2.54-4.918 11.29 7.632 1.132 0 0-4.654-6.093 10.182 7.631 1.725 0 0-4.521-1.381 11.29 7.632 1.132 0 0-.247-.03 10.182 7.631 1.725 0 0-.294-.028 11.29 7.632 1.132 0 0-1.75-.102m-1.148 5.282v3.406h.843a6.6 6.6 0 0 0 1.098-.075q.442-.076.742-.349.285-.264.414-.578.135-.322.135-.857a1.86 1.86 0 0 0-.162-.815q-.166-.34-.566-.537a1.7 1.7 0 0 0-.649-.16 10 10 0 0 0-.863-.035zm0 5.683v4.226a11.29 7.632 1.132 0 0 .84.054 10.182 7.631 1.725 0 0 1.45.09 10.182 7.631 1.725 0 0 1.639-.104l-2.666-4.266z" style="fill:#6a9fb5;fill-opacity:1;stroke:none;stroke-width:1.20520186;stroke-opacity:1"/></svg>