<svg xmlns="http://www.w3.org/2000/svg" width="16" height="16" fill="none"><path fill="#FC8289" fill-rule="evenodd" d="M7.856 9.11q0-.302-.193-.446-.192-.144-.615-.143h-.522v1.212h.547q.783 0 .783-.623M3 4a1 1 0 0 1 1-1h8a1 1 0 0 1 1 1v8a1 1 0 0 1-1 1H4a1 1 0 0 1-1-1zm4.965 8.13-.902-1.66h-.537v1.66h-.917V7.783h1.535q.821 0 1.228.332.407.33.407.957 0 .441-.23.75a1.2 1.2 0 0 1-.637.436l1.085 1.872zm1.464-4.347v4.347h3.136v-.734h-2.22v-1.1h1.903v-.734h-1.902V8.517h2.092v-.734z" clip-rule="evenodd"/></svg>