<svg xmlns="http://www.w3.org/2000/svg" width="16" height="16" fill="none"><path fill="#FC8289" fill-rule="evenodd" d="m13.933 7.858-.505-.306a.3.3 0 0 0-.01-.073.3.3 0 0 1-.009-.073l.433-.413a.16.16 0 0 0 .045-.073.4.4 0 0 0 .01-.09l-.046-.073a.2.2 0 0 0-.063-.054l-.56-.198a.3.3 0 0 1-.026-.073.4.4 0 0 1-.009-.072l.343-.487a.3.3 0 0 0 .027-.08.13.13 0 0 0-.01-.081.3.3 0 0 0-.054-.073.12.12 0 0 0-.09-.036l-.577-.09-.073-.144.253-.522a.2.2 0 0 0 .01-.099.3.3 0 0 0-.027-.08.1.1 0 0 0-.064-.055.2.2 0 0 0-.08-.018l-.596.018-.045-.054-.045-.054.126-.576q.018-.056 0-.09l-.036-.073a.16.16 0 0 0-.081-.045.4.4 0 0 0-.08-.01l-.578.145a.3.3 0 0 1-.063-.045.3.3 0 0 0-.064-.045l.036-.595a.15.15 0 0 0-.027-.09.2.2 0 0 0-.063-.054.11.11 0 0 0-.081-.036.2.2 0 0 0-.08.019l-.542.234-.064-.036-.063-.036-.09-.576-.045-.073a.16.16 0 0 0-.064-.054.3.3 0 0 0-.09-.018.2.2 0 0 0-.09.035l-.468.343a.3.3 0 0 0-.073-.027.4.4 0 0 0-.073-.009l-.198-.558a.3.3 0 0 0-.055-.072.12.12 0 0 0-.09-.036q-.035-.018-.08 0a.3.3 0 0 0-.081.054l-.397.432a.3.3 0 0 1-.073-.009.3.3 0 0 0-.073-.01l-.307-.504a1 1 0 0 0-.073-.063.14.14 0 0 0-.09-.027.13.13 0 0 0-.072.027 1 1 0 0 0-.073.063l-.307.505a.3.3 0 0 0-.073.01.3.3 0 0 1-.073.008l-.414-.432a.12.12 0 0 0-.063-.054q-.045-.018-.081 0a.12.12 0 0 0-.09.036.3.3 0 0 0-.054.072l-.199.558a.4.4 0 0 0-.145.036l-.488-.342a.11.11 0 0 0-.08-.036.17.17 0 0 0-.145.072.4.4 0 0 0-.045.073l-.09.576-.063.036-.064.036-.541-.234a.2.2 0 0 0-.08-.019.11.11 0 0 0-.082.036.2.2 0 0 0-.063.054.14.14 0 0 0-.027.09l.036.595a.3.3 0 0 0-.063.045.3.3 0 0 1-.064.045l-.577-.144a.4.4 0 0 0-.08.01.16.16 0 0 0-.082.044.16.16 0 0 0-.045.073.16.16 0 0 0 .01.09l.125.576-.045.054-.045.054-.595-.018a.2.2 0 0 0-.081.018.12.12 0 0 0-.064.054.11.11 0 0 0-.035.081q0 .045.018.1l.253.521-.073.145-.595.09q-.036 0-.073.035a.3.3 0 0 0-.054.073.13.13 0 0 0-.01.08q.009.045.027.081l.343.487a.2.2 0 0 1-.019.072.2.2 0 0 0-.018.073l-.559.198a.2.2 0 0 0-.063.054.4.4 0 0 0-.045.073q0 .054.009.09a.2.2 0 0 0 .045.073l.433.413a.3.3 0 0 1-.01.073.3.3 0 0 0-.009.073l-.505.306a.12.12 0 0 0-.055.064.2.2 0 0 0-.018.08q0 .054.018.09t.055.054l.505.324q0 .036.01.073.009.037.009.073l-.433.396a.16.16 0 0 0-.045.08.4.4 0 0 0-.01.081.2.2 0 0 0 .046.081.2.2 0 0 0 .063.045l.559.217q0 .036.018.072a.2.2 0 0 1 .019.073l-.343.468a.3.3 0 0 0-.027.08.13.13 0 0 0 .01.082q.018.054.054.08a.12.12 0 0 0 .073.027l.595.108a.2.2 0 0 1 .036.054l.036.073-.253.54a.2.2 0 0 0-.018.081q0 .045.035.08a.12.12 0 0 0 .064.055q.045.018.08.019l.596-.019a.3.3 0 0 0 .045.063l.045.045-.126.577a.2.2 0 0 0-.009.099q.009.045.045.063.036.036.081.054.045.02.08 0l.578-.144a.4.4 0 0 0 .063.054q.029.019.045.055l-.018.576q0 .054.027.09a1 1 0 0 0 .063.073q.036.018.08.026a.13.13 0 0 0 .082-.01l.541-.252.063.036q.028.018.064.036l.09.576a.3.3 0 0 0 .045.09.2.2 0 0 0 .063.054h.081l.081-.035.487-.343a.3.3 0 0 0 .073.027.3.3 0 0 1 .073.026l.198.541q.019.054.054.08a.15.15 0 0 0 .09.027q.036.018.081 0a.2.2 0 0 0 .064-.036l.414-.432h.144l.307.505a1 1 0 0 0 .073.063.12.12 0 0 0 .073.027.15.15 0 0 0 .09-.027 1 1 0 0 0 .073-.063l.307-.505h.144l.397.432.08.036q.045.018.082 0a.15.15 0 0 0 .09-.026q.035-.027.035-.081l.218-.54a.3.3 0 0 1 .072-.027.3.3 0 0 0 .073-.027l.469.343a.2.2 0 0 0 .09.035h.09a.2.2 0 0 0 .063-.054.3.3 0 0 0 .045-.09l.09-.576.064-.036.063-.036.541.253q.036.018.081.01a.3.3 0 0 0 .081-.027 1 1 0 0 0 .064-.073.14.14 0 0 0 .026-.09l-.036-.576a.4.4 0 0 1 .064-.055.4.4 0 0 0 .063-.054l.578.144q.035.02.08 0a.3.3 0 0 0 .081-.054.2.2 0 0 0 .036-.063.15.15 0 0 0 0-.1l-.126-.576.045-.045.045-.063.596.019q.035 0 .08-.019a.12.12 0 0 0 .064-.054.3.3 0 0 0 .027-.08.13.13 0 0 0-.01-.082l-.252-.54.035-.073.036-.054.577-.108a.15.15 0 0 0 .09-.027.16.16 0 0 0 .054-.08.12.12 0 0 0 .01-.081.4.4 0 0 0-.027-.08l-.343-.469q0-.036.01-.073a.4.4 0 0 1 .026-.072l.559-.217a.19.19 0 0 0 .108-.126.4.4 0 0 0-.009-.08.16.16 0 0 0-.045-.08l-.433-.397v-.073l.019-.073.505-.324a.12.12 0 0 0 .055-.054.2.2 0 0 0 .018-.09.2.2 0 0 0-.018-.08.12.12 0 0 0-.055-.064zm-3.373 4.179a.36.36 0 0 1-.225-.163.4.4 0 0 1-.063-.27.36.36 0 0 1 .162-.224.33.33 0 0 1 .27-.045q.143.036.226.153.082.118.045.28a.34.34 0 0 1-.154.216.4.4 0 0 1-.262.054zm-.18-1.153a.3.3 0 0 0-.243.036.27.27 0 0 0-.136.198l-.18.846a4.7 4.7 0 0 1-.874.28q-.462.098-.947.098-.486 0-.956-.099a4 4 0 0 1-.884-.297l-.18-.846a.35.35 0 0 0-.144-.199.27.27 0 0 0-.235-.035l-.74.144a3 3 0 0 1-.378-.45h3.626l.018-.037v-1.26q0-.037-.018-.046a.1.1 0 0 0-.036-.009H7.008v-.793h1.136q.09 0 .343.08.254.08.361.514.036.125.1.458.063.334.117.478.036.162.226.387.189.225.406.225h1.84q-.09.125-.19.243l-.207.243-.758-.162zm-4.96 1.134a.42.42 0 0 1-.27-.054.28.28 0 0 1-.144-.216.33.33 0 0 1 .045-.27.37.37 0 0 1 .225-.163.33.33 0 0 1 .27.045q.126.083.144.225a.33.33 0 0 1-.045.27.37.37 0 0 1-.225.162zm-1.353-5.51a.35.35 0 0 1 0 .269.33.33 0 0 1-.18.198.37.37 0 0 1-.28 0 .33.33 0 0 1-.188-.18.325.325 0 0 1 .18-.468.36.36 0 0 1 .47.18zm-.414.99.757-.343a.3.3 0 0 0 .171-.18.33.33 0 0 0-.01-.252l-.144-.361h.613v2.81H3.778a6 6 0 0 1-.118-.594 4.2 4.2 0 0 1-.036-.856q.009-.117.027-.225zm3.354-.27v-.83h1.479q.072 0 .307.09t.234.343q0 .217-.207.307-.208.09-.443.09zm5.393.737q0 .09-.01.171-.008.081-.008.153h-.452q-.035 0-.045.019a.1.1 0 0 0-.009.054v.217q0 .36-.17.477a.76.76 0 0 1-.353.135.6.6 0 0 1-.324-.054q-.162-.073-.18-.18-.108-.577-.28-.784a3 3 0 0 0-.442-.423q.325-.198.613-.513.29-.315.289-.73 0-.45-.244-.73a2.8 2.8 0 0 0-.442-.423 1.7 1.7 0 0 0-.586-.252 2.5 2.5 0 0 0-.37-.054H4.735q.468-.54 1.1-.9.63-.36 1.352-.487l.559.576a.34.34 0 0 0 .225.1.26.26 0 0 0 .225-.1l.613-.576q.975.18 1.758.747.784.567 1.254 1.378l-.415.954a.27.27 0 0 0-.018.253.33.33 0 0 0 .18.18l.811.36q0 .109.01.217.009.108.009.217zm-4.653-4.79a.347.347 0 0 1 .506 0q.09.109.09.261a.3.3 0 0 1-.109.244.347.347 0 0 1-.505 0 .33.33 0 0 1-.1-.262.33.33 0 0 1 .118-.243m4.166 3.35a.33.33 0 0 1 .199-.199.3.3 0 0 1 .27.019q.144.054.189.189t-.01.279a.33.33 0 0 1-.188.18.37.37 0 0 1-.28 0 .33.33 0 0 1-.18-.199.35.35 0 0 1 0-.27" clip-rule="evenodd"/></svg>