<svg xmlns="http://www.w3.org/2000/svg" width="16" height="16" fill="none"><path fill="#C3E88D" fill-rule="evenodd" stroke="#C3E88D" stroke-width=".5" d="M12.767 2.345q.09.071.122.19.033.12.01.27a.9.9 0 0 1-.109.304q-.018.02-.047 0a.1.1 0 0 1-.037-.048q.018-.113-.08-.19-.099-.075-.306-.075-.386 0-.777.29-.39.289-.757.763t-.687 1.09a10.4 10.4 0 0 0-.927 2.572q-.137.645-.137 1.176 0 .285.16.285a.34.34 0 0 0 .221-.095q.108-.095.25-.285.029-.018.051.005.023.024.015.061-.188.285-.443.475t-.46.19q-.18 0-.25-.105a.46.46 0 0 1-.07-.265q0-.447.187-1.115.189-.669.504-1.414.315-.743.73-1.484.413-.74.86-1.333.447-.592.9-.963.45-.37.846-.37a.36.36 0 0 1 .23.071ZM3.473 13.86a.36.36 0 0 1-.122-.19.6.6 0 0 1-.01-.27.9.9 0 0 1 .109-.304q.018-.02.047 0a.1.1 0 0 1 .037.048q-.018.113.08.19.099.075.306.075.386 0 .777-.29.39-.288.757-.763t.687-1.09a10.4 10.4 0 0 0 .927-2.572q.137-.645.137-1.176 0-.284-.16-.284a.33.33 0 0 0-.221.094 2 2 0 0 0-.25.285q-.028.018-.051-.005t-.015-.062a1.9 1.9 0 0 1 .443-.474q.255-.19.46-.19.18 0 .25.105t.07.265q0 .447-.187 1.115-.189.669-.504 1.414t-.73 1.484q-.413.74-.86 1.333a5.6 5.6 0 0 1-.9.963q-.45.37-.846.37a.36.36 0 0 1-.23-.071Z" clip-rule="evenodd"/></svg>