<svg xmlns="http://www.w3.org/2000/svg" width="16" height="16" fill="none"><path fill="#F07178" fill-rule="evenodd" d="M10.106 2.072c.914.196 1.72.734 2.251 1.503l.005-.004a3.43 3.43 0 0 1 .585 2.592c-.077.43-.24.84-.481 1.204.35.667.467 1.432.333 2.174a3.22 3.22 0 0 1-1.454 2.157L8.54 13.484a3.674 3.674 0 0 1-4.921-1.057 3.43 3.43 0 0 1-.588-2.588c.077-.43.24-.839.481-1.204a3.4 3.4 0 0 1-.334-2.174 3.22 3.22 0 0 1 1.454-2.156l2.803-1.787a3.68 3.68 0 0 1 2.67-.446M5.828 12.51c.427.159.893.182 1.334.067.2-.054.393-.139.569-.25l2.803-1.787a1.94 1.94 0 0 0 .874-1.295 2.06 2.06 0 0 0-.351-1.558 2.23 2.23 0 0 0-2.39-.886 2 2 0 0 0-.57.25l-1.07.682a.6.6 0 0 1-.171.075.67.67 0 0 1-.82-.491.6.6 0 0 1-.006-.246.58.58 0 0 1 .263-.39l2.802-1.788a.6.6 0 0 1 .172-.076.67.67 0 0 1 .72.268.63.63 0 0 1 .113.417l-.01.103.105.032a3.6 3.6 0 0 1 1.096.548l.144.105.053-.16a2 2 0 0 0 .048-1.077 2.226 2.226 0 0 0-2.722-1.63 2 2 0 0 0-.57.252L5.441 5.46a1.93 1.93 0 0 0-.874 1.298 2.06 2.06 0 0 0 .351 1.558 2.23 2.23 0 0 0 2.39.886q.305-.082.57-.25l1.07-.683a.6.6 0 0 1 .171-.075.67.67 0 0 1 .821.492q.027.122.006.245a.58.58 0 0 1-.263.39l-2.801 1.786a.6.6 0 0 1-.172.075.67.67 0 0 1-.72-.267.63.63 0 0 1-.114-.416l.01-.104-.105-.032a3.6 3.6 0 0 1-1.096-.548l-.144-.105-.052.16q-.043.13-.068.262a2.06 2.06 0 0 0 .351 1.559c.26.374.629.66 1.056.818" clip-rule="evenodd"/></svg>