<svg xmlns="http://www.w3.org/2000/svg" width="16" height="16" fill="none"><g fill-rule="evenodd" clip-rule="evenodd"><path fill="#6B7394" d="M3.967 4.837a1.1 1.1 0 0 1-1.038.757c-.608 0-1.101-.509-1.101-1.136 0-.628.493-1.137 1.1-1.137.48 0 .888.317 1.039.758h6.396v.038q.438-.038.906-.038v.684q-.47 0-.906.04v.034h-.303c-2.285.291-3.844 1.431-4.826 3.174a8.2 8.2 0 0 0-.848 2.255 8 8 0 0 0-.129.742 4 4 0 0 0-.026.268l-.669-.034a5 5 0 0 1 .03-.319c.03-.244.076-.516.14-.807a8.9 8.9 0 0 1 .921-2.446c.703-1.246 1.68-2.217 2.96-2.833z"/><path fill="#FF9CAC" d="M4.069 10.29c-.962 0-1.738.77-1.738 1.723v.018c0 .951.779 1.723 1.738 1.723.962 0 1.738-.77 1.738-1.723v-.018c0-.95-.779-1.722-1.738-1.722m-.745 1.74v-.017a.74.74 0 0 1 .745-.737c.411 0 .745.331.745.737v.018a.74.74 0 0 1-.745.737.74.74 0 0 1-.745-.737m8.69-9.199c-.962 0-1.738.77-1.738 1.723v.017c0 .951.779 1.723 1.738 1.723.961 0 1.738-.77 1.738-1.723v-.017c0-.952-.78-1.723-1.738-1.723m-.745 1.74v-.017a.74.74 0 0 1 .745-.737c.411 0 .745.33.745.737v.017a.74.74 0 0 1-.745.737.74.74 0 0 1-.745-.737"/></g></svg>