<svg xmlns="http://www.w3.org/2000/svg" width="16" height="16" fill="none"><path fill="#FFCB6B" fill-rule="evenodd" d="M12.388 2.99q-.268-.497-.784-.57-.516-.07-1.158.18a2 2 0 0 0-.19.072l-.195.087q-.566.276-1.175.721t-1.175.98-1.052 1.115-.829 1.14q.023.225.02.466a5 5 0 0 1-.032.538l-.007.089a2 2 0 0 0-.02.15l-.004.058-.002-.043v-.142a.1.1 0 0 0 .002-.032.1.1 0 0 1 .009-.047q-.016-.005-.01-.02l.005-.015a4 4 0 0 0-.06-.405 7 7 0 0 1-.065-.39q-.12.14-.219.27l-.198.261q.06.404.013.887l-.047.483.003-.057v-.192q.002-.192-.063-.464a3 3 0 0 1-.074-.436 4 4 0 0 0-.306.463q-.103.188-.089.243.024.125.02.299-.003.172-.011.387-.05.465-.12.897l-.071.433-.043.117a12 12 0 0 0-.478 1.41q-.115.457-.183.832-.069.375-.052.614l.108-.01a4.3 4.3 0 0 1 .139-.974q.132-.527.382-1.119.362-.9.976-1.901.615-1 1.428-2.004a17.6 17.6 0 0 1 2.686-2.503q.662-.492 1.295-.837.633-.344 1.177-.513-.519.195-1.203.703-.686.509-1.358 1.105A29 29 0 0 0 8.123 6.49q-.582.579-.883.936a22 22 0 0 0-1.27 1.57q-.567.775-1.024 1.56.543-.686 1.28-.817l.737-.131.528-.316 1.278-.86q-.316-.03-.746-.08a7 7 0 0 0-.62-.05q-.28.014-.37.023l-.089.01.74-.114 1.483-.076a27 27 0 0 0 1.415-1.167 9 9 0 0 0 1.24-1.323q.517-.685.714-1.372.197-.686-.15-1.295z" clip-rule="evenodd"/></svg>