<svg xmlns="http://www.w3.org/2000/svg" width="16" height="16" fill="none"><path fill="#2ECC71" fill-rule="evenodd" d="M1.007 5H5.22l.007 1.412h-.202q-.099-.756-.567-1.022-.263-.147-.786-.161v3.685q0 .386.135.512.135.127.562.127v.177H1.875v-.177q.41 0 .545-.128.135-.129.135-.511V5.229q-.513.015-.786.16-.502.274-.567 1.023H1zm4.597 6.23v-.177q.3-.01.427-.082.195-.11.195-.41V7.172q0-.308-.202-.413-.115-.065-.42-.082V6.5h4.033v1.412h-.17q-.134-.677-.454-.927-.319-.25-1.163-.25-.322 0-.409.067t-.087.265v1.62q.599.008.81-.217.212-.224.325-.818h.177v2.365H8.49q-.075-.599-.306-.842-.23-.245-.829-.245v1.696q0 .221.115.302.114.08.47.08.669 0 1.093-.26.424-.259.752-.974h.195l-.284 1.457zm4.669-1.677q.267-.048.383-.1A.94.94 0 0 0 11 9.167l1.224-1.548-1.385-2.034a1.4 1.4 0 0 0-.27-.309.5.5 0 0 0-.29-.097V5h2.423v.178a2 2 0 0 0-.45.054q-.11.038-.11.178 0 .061.027.12t.079.136l.68 1.053q.574-.803.69-.988t.116-.307q0-.15-.17-.205a1.5 1.5 0 0 0-.342-.041V5h1.75v.178q-.465.045-.735.312-.27.27-1.138 1.489l1.271 1.976q.25.386.367.478a.64.64 0 0 0 .313.12v.177h-2.38v-.177q.307-.014.407-.041.153-.046.153-.178a.5.5 0 0 0-.032-.142 1.2 1.2 0 0 0-.114-.22l-.705-1.135-.266.355q-.339.455-.458.636-.198.304-.198.43 0 .186.242.254.137.04.325.04v.178h-1.75z" clip-rule="evenodd"/></svg>