<svg xmlns="http://www.w3.org/2000/svg" width="16" height="16" fill="none"><path fill="#3965BD" d="M13.5 4A1.5 1.5 0 0 0 12 2.5v1a.5.5 0 0 1 .5.5zM12 2.5H4v1h8zm-8 0A1.5 1.5 0 0 0 2.5 4h1a.5.5 0 0 1 .5-.5zM2.5 4v8h1V4zm0 8A1.5 1.5 0 0 0 4 13.5v-1a.5.5 0 0 1-.5-.5zM4 13.5h8v-1H4zm8 0a1.5 1.5 0 0 0 1.5-1.5h-1a.5.5 0 0 1-.5.5zm1.5-1.5V4h-1v8z"/><path fill="#82AAFF" fill-rule="evenodd" d="M8.87 10.655q.187.098.475.171.29.075.607.074.333 0 .508-.119a.362.362 0 0 0 .009-.617q-.167-.126-.558-.246-.537-.178-.866-.465a.91.91 0 0 1-.33-.718q0-.506.44-.847.44-.342 1.204-.343.366 0 .64.06.272.06.467.141l-.22.722a3 3 0 0 0-.358-.127 2 2 0 0 0-.545-.067q-.319 0-.472.115-.155.116-.155.272 0 .186.187.297.187.112.61.26.58.195.851.48a1 1 0 0 1 .272.71q0 .499-.427.864-.426.364-1.314.364-.374 0-.707-.078a2.7 2.7 0 0 1-.521-.167zm-2.33.981V8.237H5.273v-.692h3.394v.692H7.402v3.4z" clip-rule="evenodd"/></svg>