<svg xmlns="http://www.w3.org/2000/svg" width="16" height="16" fill="none"><g fill="#FC8289"><path fill-rule="evenodd" d="M10.007 5.77a248 248 0 0 1 1.402-.255c.087-.016.164-.03.31.16l.553.75c.27.369.541.737.576.78.065.08.049.145-.072.18-.08.025-.681.2-1.075.314l-.273.08c.4.583 1.16 1.698 1.225 1.803.088.142.008.184-.122.242s-3.016 1.193-3.213 1.258l-.01.003c-.245.082-.358.12-.52-.128-.123-.188-.789-1.5-1.115-2.145-.618.176-1.749.499-2.075.585-.318.083-.454-.125-.506-.254l-.466-1.101a579 579 0 0 1-1.58-3.75c-.117-.303.012-.36.13-.371.117-.01 1.769-.16 1.984-.171.204-.01.233.037.315.171l.015.025 2.38 4.35 2.993-.783-.99-1.535c-.083-.125.001-.183.134-.208m-4.4 3.12c-.087.022-.09.013-.1-.019v-.003c-.01-.033-1.993-4.503-2.02-4.559-.028-.056-.027-.1 0-.1.013 0 .447-.042.865-.082.38-.036.746-.072.772-.073.046-.003.05.005.061.03l.009.017 2.234 4.217.013.024c.029.051.034.062-.033.08zm4.7-2.774.877 1.315 1.137-.307c.065-.015.114-.04.085-.08l-.14-.196c-.23-.318-.66-.914-.701-.975-.053-.08-.091-.07-.134-.06l-.005.002c-.045.01-1.041.207-1.102.216s-.041.047-.017.085M12.14 9.4l-.006-.01-.469-.696c-.015-.026-.166-.255-.303-.46l-.218-.332c-.036-.057-.056-.068-.142-.038l-2.918.83s.896 1.695.965 1.803c.069.109.11.1.164.075.032-.014 1.01-.377 1.82-.677.558-.206 1.036-.383 1.07-.397.077-.03.061-.058.037-.098" clip-rule="evenodd"/><path d="m11.383 5.52.04.247zm-1.376.25-.045-.246zm1.402-.255-.045-.246zm.31.16.198-.15zm.553.75.201-.147zm.576.78-.194.158zm-.072.18-.07-.239zm-1.075.314-.07-.24zm-.273.08-.07-.24-.33.096.194.285zm1.225 1.803-.212.131zm-.122.242-.103-.228zm-3.213 1.258-.079-.237zm-.01.003-.078-.237zm-.52-.128.21-.138zM7.673 8.812l.223-.113-.093-.185-.2.057zm-2.075.585.064.242zm-.506-.254.231-.094zm-.466-1.101.23-.098zm-1.58-3.75-.233.09zm.13-.371.022.249zM5.16 3.75l.013.25zm.315.171-.213.13zm.015.025.22-.12-.007-.01zm2.38 4.35-.219.12.094.172.19-.05zm2.993-.783.064.242.334-.088-.188-.29zm-.99-1.535-.21.137zM5.507 8.871l.24-.071zm.098.02.06.242h.001zm-.1-.023.24-.071v-.003zM3.487 4.31l.225-.11zm.866-.182-.024-.249zm0 0 .023.25zm.772-.073.015.25zm.061.03.227-.107zm.009.017.22-.117zm2.234 4.217.221-.117zm.013.024.22-.12zm-.033.08-.064-.243zm3.776-.991-.208.138.1.15.173-.047zm-.877-1.315-.21.136.002.003zm2.014 1.008-.058-.243h-.001zm.085-.08-.204.145zm-.14-.196.202-.146zm0 0-.204.146zm-.701-.975.208-.139zm-.134-.06.06.243zm-.005.002.06.242zm-1.102.216.035.248h.001zm1.81 3.359.215-.128-.004-.006-.004-.006zm.006.01-.215.128v.001zm-.475-.706-.216.126.004.007.005.007zm-.303-.46-.208.137zm-.218-.332.21-.134zm-.142-.038.069.24.013-.004zm-2.918.83-.068-.24-.297.084.144.273zm.965 1.803-.212.134zm.164.075-.106-.226zm1.82-.677-.086-.234zm1.07-.397-.092-.232zm-.759-4.225c-.102.016-1.252.227-1.382.251l.09.492 1.37-.25zm.02-.004-.02.004.078.494.032-.006zm.553.256a.7.7 0 0 0-.286-.24c-.121-.047-.227-.023-.267-.016l.09.492c.025-.005.027-.004.027-.004q-.01 0-.028-.005c-.009-.004-.008-.006.004.004a.5.5 0 0 1 .062.07zm.556.753c-.238-.325-.48-.653-.556-.753l-.398.302c.073.097.31.42.551.747zm.569.77-.001-.002-.004-.005-.013-.018-.174-.234-.377-.511-.403.296c.267.362.544.74.584.789zm-.195.578c.08-.024.217-.081.27-.23.057-.157-.026-.288-.075-.349l-.388.316c.004.005-.004-.003-.01-.024a.17.17 0 0 1 .003-.111.16.16 0 0 1 .056-.078c.012-.009.016-.008.002-.004zm-1.076.313 1.076-.313-.142-.48-1.074.313zm-.273.08.273-.08-.14-.48-.273.08zm1.368 1.431c-.069-.11-.836-1.234-1.231-1.812l-.413.282c.402.588 1.158 1.695 1.219 1.793zm-.233.602c.032-.014.073-.033.111-.055a.4.4 0 0 0 .133-.118.34.34 0 0 0 .061-.236.5.5 0 0 0-.072-.193l-.425.263c.012.02.003.013 0-.014a.165.165 0 0 1 .03-.11c.016-.024.032-.03.02-.023l-.062.03zM9.396 11.32c.107-.036.889-.34 1.645-.637.757-.297 1.52-.598 1.592-.631l-.204-.456-.004.002q-.004 0-.01.004l-.144.058-.361.144-1.052.414c-.768.301-1.529.597-1.619.627zm-.009.003.01-.003-.158-.475-.009.003zm-.808-.23c.095.146.217.272.402.299.083.012.16 0 .222-.014.061-.014.126-.036.184-.055l-.157-.475a2 2 0 0 1-.14.043c-.033.008-.04.005-.037.006.027.004.011.025-.056-.078zm-1.13-2.169c.164.324.412.814.635 1.247.219.423.424.815.495.923l.418-.274c-.052-.08-.241-.438-.468-.879-.222-.43-.47-.92-.633-1.242zm-1.787.715c.33-.087 1.464-.41 2.08-.587l-.138-.48c-.62.177-1.747.498-2.07.583zm-.802-.402a.7.7 0 0 0 .24.315.65.65 0 0 0 .562.087l-.127-.484a.24.24 0 0 1-.101.009.1.1 0 0 1-.043-.017.23.23 0 0 1-.068-.098zM4.396 8.14l.464 1.098.463-.188-.466-1.105zM2.813 4.383c.083.214 1.006 2.394 1.583 3.756l.46-.195c-.58-1.37-1.497-3.537-1.576-3.742zm.34-.711c-.074.007-.246.033-.344.196-.095.158-.061.346.004.515l.467-.18a.4.4 0 0 1-.03-.109c0-.01.003.006-.013.032a.1.1 0 0 1-.048.044c-.007.003-.007.001.01 0zM5.148 3.5a149 149 0 0 0-1.995.172l.046.498c.122-.011 1.765-.16 1.974-.17zm.54.291c-.03-.05-.088-.155-.19-.22a.57.57 0 0 0-.35-.071l.025.5a.4.4 0 0 1 .072 0c.006.001-.003 0-.016-.008-.012-.008-.016-.014-.009-.005.009.011.02.028.042.065zm.015.024-.015-.024-.426.26q.007.013.015.026zM8.09 8.177l-2.38-4.35-.44.24 2.381 4.35zm2.71-.906-2.993.784.127.483 2.993-.783zM9.663 6.115l.99 1.533.42-.27c-.165-.257-.918-1.425-.992-1.537zm.298-.59a.5.5 0 0 0-.295.152.33.33 0 0 0-.075.236c.005.08.037.15.072.202l.418-.274c-.006-.01.006.004.008.038a.17.17 0 0 1-.037.116c-.02.025-.039.032-.035.03l.036-.01zM5.268 8.942l.007.023q.006.017.025.052a.27.27 0 0 0 .16.123c.056.016.105.011.128.008a1 1 0 0 0 .079-.016l-.12-.485-.024.005h.02q.017-.002.053.007a.23.23 0 0 1 .15.139c.002.004.003.007.001.001zm0-.003v.003l.48-.143-.002-.003zM3.261 4.42l.023.051.299.67 1.69 3.819-.006-.018.478-.148-.006-.015-.01-.025-.083-.19-.228-.516a1831 1831 0 0 0-1.708-3.85zm.224-.46a.27.27 0 0 0-.222.117.3.3 0 0 0-.048.159c0 .072.023.137.046.184l.448-.222c-.004-.008.006.007.006.043a.2.2 0 0 1-.037.116.23.23 0 0 1-.193.102zm.842-.082-.584.056-.255.024c-.023.002-.015.001-.003.001v.5a13.2 13.2 0 0 0 .305-.027l.584-.056zm0 0 .047.498zm.782-.074c-.033.002-.408.038-.782.074l.047.498.52-.05.226-.021.018-.002zm.302.173c-.001-.001-.011-.023-.025-.044a.3.3 0 0 0-.092-.09c-.081-.047-.166-.04-.185-.039l.03.5-.016-.002a.221.221 0 0 1-.156-.098c-.009-.013-.014-.024-.009-.014zm.002.006-.002-.006-.453.213.015.03zM7.65 8.201 5.415 3.984l-.442.234 2.234 4.217zm.011.02-.01-.02-.443.234q.01.015.015.028zm-.19.442a.5.5 0 0 0 .087-.03.28.28 0 0 0 .142-.164.28.28 0 0 0-.01-.19c-.01-.025-.025-.05-.029-.058l-.438.242c.01.018.007.013.004.005-.002-.004-.03-.067-.004-.148a.23.23 0 0 1 .112-.135c.016-.008.026-.01.01-.006zm-1.803.47c.091-.023 1.77-.46 1.804-.47l-.127-.484-1.798.47zm5.725-1.84-.877-1.315-.416.277.877 1.314zm.87-.412a76 76 0 0 0-.975.263l-.123.033-.034.01-.009.002h-.002l.065.242.065.241h.003l.01-.003.033-.01q.046-.011.122-.033l.376-.101.387-.105.137-.036.043-.012.014-.003.004-.001h.001zm-.06.308a.22.22 0 0 1-.033-.165.21.21 0 0 1 .1-.143l.007-.004q.001 0-.013.004l.115.487a.5.5 0 0 0 .174-.077.3.3 0 0 0 .108-.172.28.28 0 0 0-.05-.22zm-.14-.195.14.195.408-.29-.142-.197zm0 0 .406-.293zm-.705-.983c.044.067.48.67.705.983l.406-.292c-.232-.322-.658-.912-.695-.968zm.135.045c.014-.004.008-.002-.002 0a.2.2 0 0 1-.066-.007c-.06-.017-.079-.055-.067-.037l.416-.278a.38.38 0 0 0-.21-.165c-.096-.028-.183 0-.194.002zm-.005.001.005-.001-.123-.485-.004.001zm-1.127.222c.07-.01 1.073-.209 1.127-.222l-.122-.485-.047.01a31 31 0 0 1-.486.097l-.531.103-.014.002zm.158-.298q-.008-.012-.002-.002c0 .002.016.03.017.075a.23.23 0 0 1-.079.18c-.045.038-.09.044-.095.045l-.071-.495a.3.3 0 0 0-.159.069.27.27 0 0 0-.096.219c.003.06.023.106.033.126l.031.054zm1.4 3.536.007.011.43-.255-.006-.011zm-.46-.683.468.695.415-.28-.469-.695zm-.304-.463.267.405.028.044.432-.251c-.02-.035-.179-.275-.31-.474zm-.221-.335c.022.036.119.182.22.335l.418-.276c-.105-.157-.197-.297-.216-.327zm.15.064.01-.003a.189.189 0 0 1-.155-.054c-.01-.011-.012-.018-.005-.007l.422-.268c-.016-.025-.073-.121-.191-.157-.106-.032-.204.003-.243.017zm-2.93.835 2.918-.83-.137-.481-2.918.83zm1.107 1.428-.004-.006-.05-.088-.117-.218a158 158 0 0 1-.745-1.4l-.029-.055-.007-.014-.002-.004-.222.116-.22.117v.001l.002.004.007.014.029.054.418.788c.228.429.476.894.517.96zm-.153-.017c-.01.005 0 0 .016-.004a.2.2 0 0 1 .09.005.2.2 0 0 1 .057.032c.005.004 0 .002-.01-.016l-.423.268a.43.43 0 0 0 .223.192c.126.04.23-.01.259-.024zm1.84-.685-1.638.607-.202.078.211.453.166-.062.434-.162 1.202-.445zm1.064-.395q0 0-.008.003l-.02.008-.305.113-.731.27.173.47c.554-.205 1.038-.384 1.076-.4zm-.085.263c.008.014.004.008 0-.003a.2.2 0 0 1-.013-.114.2.2 0 0 1 .072-.128c.02-.017.034-.021.026-.018l.184.465c.039-.016.184-.074.211-.237a.3.3 0 0 0-.02-.164c-.012-.027-.028-.052-.031-.058z"/></g></svg>