<svg xmlns="http://www.w3.org/2000/svg" width="16" height="16" fill="none"><path fill="#FF7042" fill-rule="evenodd" d="M8 3.375h5.6c.77 0 1.4.619 1.4 1.375v.518A2 2 0 0 0 14 5h-.4v-.25H2.4v6.875H5V13H2.4c-.77 0-1.4-.619-1.4-1.375l.007-8.25C1.007 2.619 1.63 2 2.4 2h4.2z" clip-rule="evenodd"/><path fill="#F78C6C" fill-rule="evenodd" d="M7.222 6.222a1 1 0 0 0-1 1v6.556a1 1 0 0 0 1 1h6.556a1 1 0 0 0 1-1V7.222a1 1 0 0 0-1-1zm3.525 4.486.313-.157 2.5-1.255-.011 2.849-2.814 1.412zM13.38 8.92 10.5 7.444l-1.222.612-1.701.864 1.835.898 1.077.553 1.076-.54zm-4.87 1.634.516.235.003-.693 1.203.615-.012 2.828-2.781-1.425.012-2.829 1.062.543z" clip-rule="evenodd"/></svg>