<svg xmlns="http://www.w3.org/2000/svg" width="16" height="16" fill="none"><path fill="#F07178" fill-rule="evenodd" d="m1.397 6.529-.227.29 2.926-.002.185-.29zm2.485.713-.096.29L0 7.533l.227-.29zm-.173.715-.028.29-1.796.001.161-.29zm11.908 1.272c.363-.652.44-1.36.347-1.95-.45-2.883-4.888-3.024-6.025.186H7.312l-.563 1.214L8.5 8.675c-.355.538-.83.887-1.537.796-1.361-.26-1.382-2.01-.255-2.704.716-.518 1.648-.175 1.82.303l1.614-.424c-.513-1.368-1.995-1.918-3.497-1.45C5.7 5.504 4.1 6.726 4.304 8.7c.278 2.062 2.44 2.718 4.03 1.966a3.45 3.45 0 0 0 1.581-1.554c.236.77.731 1.29 1.344 1.579v-.55c0-.443.153-.856.406-1.198a1.3 1.3 0 0 1-.168-.378c-.188-.688.115-1.76 1.33-2.022 1.185-.255 1.764.73 1.557 1.636.511.208.965.583 1.233 1.05" clip-rule="evenodd"/><path fill="#FFCB6B" fill-rule="evenodd" d="M15.375 11.329h-.312v-.666c0-.918-.7-1.663-1.563-1.663s-1.562.745-1.562 1.663v.665h-.313c-.344 0-.625.3-.625.666v3.326c0 .366.281.666.625.666h3.75c.344 0 .625-.3.625-.666v-3.326c0-.366-.281-.665-.625-.665M13.5 14.322c-.344 0-.625-.299-.625-.665s.281-.665.625-.665.625.3.625.665-.281.665-.625.665m-.969-3.659v.665h1.938v-.665c0-.569-.435-1.031-.969-1.031s-.969.462-.969 1.031" clip-rule="evenodd"/></svg>