<svg xmlns="http://www.w3.org/2000/svg" width="16" height="16" fill="none"><mask id="a" width="12" height="12" x="2" y="1" maskUnits="userSpaceOnUse" style="mask-type:luminance"><path fill="#fff" d="M2.507 1.593h11.354V13H2.507z"/></mask><g mask="url(#a)"><path fill="#F0D6B7" d="m10.286 10.053-.84.127-1.136.127-.736.02-.714-.02-.547-.17-.483-.527-.379-1.078-.084-.232-.504-.169-.295-.486-.21-.697.231-.612.547-.19.441.211.21.465.253-.043.084-.105-.084-.486-.021-.612.126-.845-.005-.483.383-.615.673-.486 1.177-.507 1.304.19 1.135.824.525.845.337.612.084 1.52-.252 1.31-.463 1.162-.441.612"/><path fill="#335061" d="m9.572 13.707-3.006.126v.507l.252 1.774-.126.148-2.102-.718-.148-.253-.21-2.387-.483-1.436-.105-.338L5.325 9.97l.526-.212.462.57.4.36.462.147.21.064.253 1.098.189.232.484-.169-.337.655 1.829.866z"/><path fill="#6D6B6D" d="m4.59 6.336.546-.19.442.21.21.466.252-.043.063-.253-.126-.486.126-1.162-.105-.633.379-.444.82-.654-.232-.317-1.156.57-.484.38-.273.592-.42.57-.126.676z"/><path fill="#DCD9D8" d="M5.452 4.35s.315-.78 1.576-1.16.063-.275.063-.275l-1.366.528-.526.528-.23.422zM4.82 6.188s-.44-1.478 1.241-1.69l-.063-.253-1.156.275-.336 1.098.084.718z"/><g fill="#F7E4CD"><path d="m5.494 8.152.275-.268s.124.015.145.163c.021.147.084 1.478.988 2.196.083.066-.673-.106-.673-.106l-.672-1.055M9.362 7.751s.049-.64.22-.591c.172.05.172.222.172.222s-.417.27-.392.369M11.107 5.407s-.347.073-.379.38c-.032.306.379.063.442.042M8.563 5.428s-.463.063-.463.359c0 .295.526.274.673.148M5.704 6.8s-.799-.485-.883-.02-.273.802.126 1.288l-.273-.085-.252-.655-.085-.633.484-.507.547.042.315.254zM6.082 5.47s.358-1.859 2.166-2.218c1.488-.295 2.27.064 2.564.402 0 0-1.324-1.584-2.586-1.099-1.26.486-2.186 1.373-2.165 1.943.036.972.021.972.021.972M10.96 3.864s-.61-.02-.631.528c0 0 0 .085.042.17 0 0 .483-.55.778-.254"/><path d="M8.29 4.619s-.105-.843-.82-.353c-.463.317-.42.76-.337.845.084.084.062.254.126.138.064-.117.042-.497.274-.603.231-.105.61-.223.757-.027"/></g><g fill="#49728B" fill-rule="evenodd" clip-rule="evenodd"><path d="m6.313 10.328-1.976.887s.82 3.273.4 4.287l-.294-.106-.021-1.246-.547-2.365-.231-.655 2.06-1.394zM6.517 12.138l.28.344v1.267h-.336s-.042-.887-.042-.993.042-.485.042-.485"/></g><path fill="#335061" d="m9.971 13.728 1.177-.064s.484-1.224.484-1.288c0-.063.42-1.774.42-1.774l-.946-.993-.189-.169-.505.507v1.965z"/><path fill="#49728B" d="m10.518 9.884 1.471 1.098.042-.507-1.114-1.035z"/><path fill="#fff" d="m9.923 13.56-.462-1.184-.484-.696s.105-.296.253-.296h.483l.463.169-.043.781zM7.442 10.37l-.582-.063-.547-.17v.19l.268.297.84.38"/><path fill="#DCD9D8" fill-rule="evenodd" d="M6.503 10.433s.651.275.862.212l.02.253-.588-.127-.357-.253z" clip-rule="evenodd"/><path fill="#D33833" fill-rule="evenodd" d="M10.762 11.456a4 4 0 0 1-.961-.133c.019-.117-.017-.23.012-.314.078-.057.21-.056.33-.07a.57.57 0 0 0-.367-.041c-.003-.08-.039-.13-.06-.194.2-.072.674-.543.94-.387.127.074.18.498.19.704.009.172-.015.344-.084.435" clip-rule="evenodd"/><path stroke="#D33833" stroke-width=".522" d="M10.762 11.456a4 4 0 0 1-.961-.133c.019-.117-.017-.23.012-.314.078-.057.21-.056.33-.07a.57.57 0 0 0-.367-.041c-.003-.08-.039-.13-.06-.194.2-.072.674-.543.94-.387.127.074.18.498.19.704.009.172-.015.344-.084.435Z" clip-rule="evenodd"/><path fill="#D33833" fill-rule="evenodd" d="m9.056 10.87-.003.082c-.112.073-.291.072-.414.134.18.008.322.052.445.113l-.008.205c-.204.14-.39.35-.63.481-.114.062-.513.223-.634.194-.069-.016-.075-.101-.102-.181-.058-.173-.193-.447-.204-.706-.015-.327-.048-.876.303-.808.283.054.613.185.832.306.134.073.212.164.415.18" clip-rule="evenodd"/><path stroke="#D33833" stroke-width=".522" d="m9.056 10.87-.003.082c-.112.073-.291.072-.414.134.18.008.322.052.445.113l-.008.205c-.204.14-.39.35-.63.481-.114.062-.513.223-.634.194-.069-.016-.075-.101-.102-.181-.058-.173-.193-.447-.204-.706-.015-.327-.048-.876.303-.808.283.054.613.185.832.306.134.073.212.164.415.18Z" clip-rule="evenodd"/><path fill="#D33833" fill-rule="evenodd" d="M9.259 11.26c-.032-.178-.068-.229-.054-.384.474-.317.563.544.054.384" clip-rule="evenodd"/><path stroke="#D33833" stroke-width=".522" d="M9.259 11.26c-.032-.178-.068-.229-.054-.384.474-.317.563.544.054.384Z" clip-rule="evenodd"/><path fill="#EF3D3A" d="M9.944 11.405s-.147-.211-.042-.275c.105-.063.21 0 .273-.105.063-.106 0-.17.021-.296.021-.127.127-.148.232-.169.105-.02.4-.063.441.042l-.126-.38-.252-.084-.8.464-.041.233v.464M7.737 12.102a73 73 0 0 0-.082-.988c-.044-.492.118-.406.542-.406.065 0 .399.078.423.127.114.235-.192.183.132.36.273.15.756-.09.645-.424-.061-.074-.322-.023-.415-.071l-.493-.257c-.209-.109-.691-.268-.914-.115-.565.385.035 1.349.237 1.751"/><g fill="#231F20"><path d="M8.29 4.62c-.573-.135-.858.24-1.031.629-.155-.038-.094-.25-.055-.358.103-.283.516-.66.854-.609.145.022.342.156.232.337M11.082 5.274l.027.002c.13.27.242.556.405.795-.11.256-.829.482-.818.022.156-.068.424-.014.562-.1-.08-.22-.194-.408-.176-.719M8.583 5.282c.123.226.163.464.338.635.078.077.231.17.155.385a.5.5 0 0 1-.221.185c-.274.08-.91.017-.694-.325.226.01.53.147.698-.018-.13-.208-.36-.62-.276-.862M10.979 7.581c-.411.266-.87.554-1.543.487a.46.46 0 0 1-.059-.59c.073.126.027.357.23.392.382.065.827-.235 1.102-.34.17-.29-.015-.395-.168-.581-.315-.38-.737-.853-.721-1.423.127-.092.138.142.156.184.164.386.577.88.879 1.21.074.082.196.16.21.213.038.157-.102.344-.086.448M5.56 7.302c-.129-.074-.16-.4-.31-.409-.217-.013-.178.422-.177.677-.148-.136-.175-.554-.065-.768-.125-.062-.18.068-.25.113.09-.648.944-.3.802.387M11.24 7.851c-.19.366-.462.769-1.023.78-.011-.118-.02-.297 0-.369.43-.041.695-.26 1.023-.411M8.55 8.088c.359.19 1.017.21 1.504.196.026.107.025.24.026.37-.625.031-1.365-.124-1.53-.566M8.483 8.441c.247.625 1.099.553 1.816.536-.031.08-.1.177-.185.211-.23.094-.864.166-1.184-.005-.202-.108-.332-.352-.443-.496-.054-.069-.32-.245-.004-.246"/></g><path fill="#82AAFF" d="M10.95 11.887c-.291.5-.57 1.013-.914 1.455.144-.427.206-1.142.228-1.687.303-.142.562.032.685.232"/><path fill="#F0D6B7" d="M9.908 10.301c-.15.098-.277.221-.421.326-.319.016-.493-.022-.727-.206.004-.015.027-.008.028-.026.342.152.775-.063 1.12-.094"/><path fill="#82AAFF" d="M8.117 12.638c.094-.408.46-.62.794-.844.345.439.554 1.003.785 1.548-.545-.165-1.102-.433-1.58-.704"/><path fill="#231F20" fill-rule="evenodd" d="M11.383 13.326c.51-.255 1.463-.686 1.783 0 .118.253.256.681.317.943.087.368-.093 1.143-.47 1.266-.333.11-.722.103-1.123.022a.6.6 0 0 1-.137-.18c-.286-.011-.554.015-.78.134.02.202-.108.243-.236.284l-.02.007c-.053.208.005.45.06.686.052.212.1.419.067.59-.047.236-.315.29-.538.334l-.06.012c-.008.133.007.246.022.359l.003.025c-.053.196-.29.308-.516.335-.742.09-1.868.13-2.58-.128-.158-.387-.289-.84-.418-1.288l-.104-.359c-.571.061-1.052-.18-1.5-.406q-.146-.076-.29-.142-.076-.035-.163-.065c-.146-.054-.293-.108-.343-.214-.045-.098-.047-.256-.048-.429q0-.12-.007-.244l-.004-.064c-.04-.635-.08-1.25-.247-1.9a4 4 0 0 0-.176-.507q-.07-.174-.131-.353-.044-.13-.098-.273c-.075-.203-.155-.416-.182-.6-.043-.29.145-.381.343-.476.073-.035.147-.07.211-.117.264-.19.487-.32.739-.467q.15-.087.32-.19l.114-.063c.153-.086.372-.207.403-.272.06-.12-.043-.277-.124-.404a1 1 0 0 1-.073-.123 1.6 1.6 0 0 1-.155-.58A1.11 1.11 0 0 1 4.498 8c-.254-.375-.43-1.067-.21-1.594a.4.4 0 0 1 .043-.064c.03-.039.065-.084.073-.123a.7.7 0 0 0-.024-.252 1 1 0 0 1-.028-.174c-.023-.685.116-1.275.575-1.482.156-.627.653-.902 1.181-1.194q.15-.082.3-.17c.21-.123.437-.207.674-.294q.044-.014.087-.032c.96-.354 2.43-.288 3.227.317.337.257.877.798 1.07 1.19.51 1.035.473 2.765.117 4.025l-.004.011c-.047.169-.116.41-.21.61-.02.04-.052.094-.087.152-.084.14-.184.31-.166.398.02.097.278.314.447.457.058.049.105.088.13.112q.065.062.147.132c.17.146.367.315.387.477.023.181-.054.415-.12.614l-.045.145a30 30 0 0 1-.679 2.066m-5.143-2.84a2 2 0 0 1-.16-.179c-.133-.158-.303-.359-.337-.345-.7.277-1.354.756-1.938 1.21.557 1.2.782 2.673.822 4.092q.228.11.451.232c.474.253.956.511 1.614.545l-.015-.106c-.094-.67-.18-1.276-.233-1.913-.13-.055-.296-.043-.45-.03-.104.007-.203.015-.284.001-.001-.136.094-.155.184-.172.073-.014.142-.027.153-.101.009-.054-.022-.086-.054-.121-.044-.047-.091-.099-.056-.212.075.027.133.07.19.112a.7.7 0 0 0 .223.123c.103-.225.069-.564.04-.85a2.5 2.5 0 0 1-.02-.38c.005-.053.027-.296.146-.254.068.024.047.283.025.537a4 4 0 0 0-.02.38q.005.1.002.196c-.002.175-.004.334.07.449a24 24 0 0 1 2.593-.214l-.162-.067a4 4 0 0 1-.534-.247c-.036-.02-.093-.047-.158-.078-.186-.086-.436-.202-.466-.302-.04-.129.03-.221.1-.315.047-.061.094-.123.11-.196-.383.21-.487-.143-.577-.45l-.028-.093a4 4 0 0 1-.165-.677l-.115-.055c-.33-.157-.67-.319-.951-.52m2.4.204a3.1 3.1 0 0 0-.831-.306c-.344-.066-.32.458-.305.787l.001.021c.01.198.09.404.153.567a3 3 0 0 1 .067.19c.017.063.033.118.086.13.121.029.52-.132.634-.194a2.4 2.4 0 0 0 .387-.287 3 3 0 0 1 .244-.194l.008-.205a1.1 1.1 0 0 0-.445-.113c.056-.028.124-.043.192-.059a.7.7 0 0 0 .221-.075l.004-.082c-.152-.012-.233-.065-.32-.122a1 1 0 0 0-.095-.058m.589.431c-.02-.082-.033-.14-.024-.245.473-.317.562.544.053.384q-.015-.082-.03-.139m-2.177-.703c-.194-.014-.387-.028-.506-.11-.182.185.51.438.731.452 0-.058.015-.114.03-.166.016-.054.03-.104.023-.147-.087-.015-.183-.022-.278-.029m1.736-.023q-.002.013-.014.014-.01.003-.014.012c.234.184.408.222.727.206q.09-.067.176-.14c.079-.064.158-.129.245-.186-.11.01-.23.039-.353.069-.26.062-.535.128-.767.025m1.867-.078c.127.074.181.498.191.704.008.172-.015.344-.085.435a4 4 0 0 1-.96-.133c.008-.055.005-.108.002-.159a.4.4 0 0 1 .01-.155c.062-.046.16-.054.257-.063l.072-.007a.57.57 0 0 0-.366-.041.4.4 0 0 0-.039-.14l-.022-.054c.061-.022.148-.08.246-.148.224-.153.51-.348.694-.24m.28 1.2c.23-.433.124-1.778-.459-1.494.039-.057.107-.11.18-.164.079-.062.163-.126.216-.204.142.116.252.227.365.342.082.083.166.168.265.257.03.028.07.058.11.089.127.097.275.21.295.35.011.085-.029.27-.056.398l-.017.078c-.103.513-.335 1.191-.557 1.729l-.041.104c-.067.17-.134.343-.222.378-.135.053-.282.055-.427.056-.167.002-.33.004-.463.087q.225-.388.46-.768c.19-.31.38-.62.558-.943-.022-.053-.06-.092-.097-.13a.4.4 0 0 1-.11-.165M4.908 4.83c-.269.297-.224.845-.19 1.25l.004.042c.502-.317 1.168.025 1.162.565.192-.005.134-.196.08-.369a2 2 0 0 1-.034-.122c-.066-.29-.018-.59.029-.887.053-.338.106-.67-.012-.972a1.52 1.52 0 0 0-1.04.493m.294-.576c.258-.568 1.064-1.027 1.693-1.206.035-.01.065.014.094.045-.003.075-.059.092-.115.11a.4.4 0 0 0-.054.02 1 1 0 0 1-.185.162c-.065.047-.133.096-.195.165a1.5 1.5 0 0 0-.144.22c-.091.154-.19.323-.3.35a.4.4 0 0 1-.158-.002.5.5 0 0 0-.1-.007c-.106.006-.195.039-.286.072-.078.028-.158.057-.25.07m4.966-1.037c-.652-.37-1.757-.649-2.451-.301-.56.28-1.318.745-1.576 1.333.157.369.08.717.001 1.074-.042.193-.085.388-.092.59-.006.161.034.31.074.465.037.14.076.285.081.444-.082.137-.334.154-.509.144-.059-.295-.162-.627-.464-.66-.429-.047-.742.309-.761.681-.023.438.334 1.163.841 1.113.093-.01.152-.058.212-.107.066-.054.133-.109.246-.108.07.143-.013.225-.095.306-.052.05-.102.1-.114.165-.008.043.024.21.043.288.092.383.297.877.5 1.168.256.37.76.425 1.302.461.097-.21.453-.192.686-.137-.279-.11-.538-.38-.752-.617-.247-.273-.497-.566-.51-.922l.046.062c.446.623.833 1.163 1.652 1.44.641.215 1.39-.1 1.882-.447.162-.115.272-.282.384-.452l.088-.131c.543-.786.797-1.907.74-2.993l-.007-.177c-.017-.387-.034-.758-.164-1.02-.156-.314-.685-.596-.995-.311-.057-.307.258-.496.628-.386l-.109-.143c-.232-.307-.483-.639-.807-.822" clip-rule="evenodd"/><path fill="#F7E4CD" d="M7.981 8.248c.028-.037.18-.093.393.01 0 0-.253.042-.232.465L8.037 8.7s-.108-.383-.056-.453"/><path fill="#1D1919" d="M9.824 11.88a.116.116 0 0 1-.115.116.116.116 0 0 1-.116-.117c0-.064.052-.116.116-.116s.115.052.115.116M9.94 12.418a.116.116 0 0 1-.116.117.116.116 0 0 1-.115-.117c0-.064.052-.117.115-.117.064 0 .116.053.116.117"/></g></svg>