<svg xmlns="http://www.w3.org/2000/svg" width="16" height="16" fill="none"><g fill="#FC8289"><path d="m10.12 5.474-.675 1.368c.222.206.378.477.44.785h.51c.058-.291.202-.553.407-.756z"/><path d="m8.877 6.511 1.243-2.52 1.24 2.536q.074-.023.147-.042L12.685 3H7.552l1.175 3.475a3 3 0 0 1 .15.036M8.45 8.74a.824.824 0 0 0 .688-1.277 1 1 0 0 0-.091-.117l-.004-.004a.6.6 0 0 0-.11-.095l-.004-.003q-.016-.01-.036-.023-.003-.002-.006-.003l-.04-.023h-.003l-.042-.023h-.003a.2.2 0 0 0-.04-.016q-.004-.001-.01-.003l-.032-.014q-.004-.002-.013-.003c-.013-.003-.026-.01-.04-.013h-.002l-.046-.01q-.004 0-.013-.003-.018-.003-.036-.007-.009 0-.016-.003l-.033-.003H8.39q-.018.001-.036.003h-.013q-.02.003-.04.007h-.01l-.045.01a.83.83 0 0 0-.626.801.836.836 0 0 0 .828.822M11.908 7.09h-.006q-.018-.001-.036-.003h-.043q-.023 0-.052.003h-.016q-.02.002-.04.004c-.003 0-.01 0-.012.003l-.05.01h-.003l-.045.01-.013.003q-.02.003-.04.013-.004.002-.01.003l-.045.02-.046.02q-.004.002-.01.003-.019.008-.039.023-.002 0-.003.003a.5.5 0 0 0-.085.059l-.003.003a.723.723 0 0 0-.206.239.824.824 0 0 0 .715 1.234c.454 0 .822-.37.822-.825a.83.83 0 0 0-.662-.811q-.031-.01-.072-.014M5.04 8.74a.824.824 0 0 0 0-1.65.824.824 0 0 0 0 1.65"/><path d="M11.827 9.378c-.68 0-1.25-.468-1.413-1.097h-.548a1.464 1.464 0 0 1-1.638 1.08q-.284.437-.68.809a4.5 4.5 0 0 1-1.565.975l-.134.049-.124-.066c-.685-.353-1.038-1.07-.914-1.763a1.3 1.3 0 0 1-.225-.06q-.018.037-.036.076c-.209.432-.427.877-.506 1.355-.085.51-.12 1.443.597 1.94A1.73 1.73 0 0 0 5.653 13c.708 0 1.472-.38 2.28-.782.634-.314 1.286-.641 1.965-.808a8 8 0 0 1 .77-.138c.46-.065.898-.13 1.253-.337a1.445 1.445 0 0 0 .643-1.757c-.215.124-.466.2-.737.2"/></g></svg>