<svg xmlns="http://www.w3.org/2000/svg" width="16" height="16" fill="none"><path fill="#89DDFF" fill-rule="evenodd" d="m9.283 5.432 2.924 5.35.682-1.223-.787-1.433 1.564-.004.334-.61-.34-.626-2.228.008-.8-1.459zM9.059 9.709H3.21l.661 1.236 1.569-.004-.78 1.434.335.61.682.001 1.108-2.042 1.595-.003zM5.655 7.364l2.924-5.35L7.235 2l-.78 1.438-.786-1.43H5l-.342.624 1.12 2.035-.795 1.462z" clip-rule="evenodd"/><path fill="#82AAFF" fill-rule="evenodd" d="m10.338 7.636-2.923 5.35L8.758 13l.78-1.438.787 1.43h.667l.342-.624-1.12-2.035.795-1.462zM6.947 5.279h5.847l-.66-1.237-1.57.005.78-1.434-.334-.611h-.683L9.22 4.042l-1.596.004zM6.717 9.567l-2.924-5.35-.682 1.223.788 1.433-1.565.004-.334.61.34.626 2.228-.008.8 1.459z" clip-rule="evenodd"/></svg>