<svg xmlns="http://www.w3.org/2000/svg" width="16" height="16" fill="none"><path fill="#FC8289" fill-rule="evenodd" d="M4.745 5.745a1 1 0 0 1 1-1h4.985a1 1 0 0 1 1 1v.259a2.18 2.18 0 0 1 1.75 1.058V4a1 1 0 0 0-1-1H4a1 1 0 0 0-1 1v8.48a1 1 0 0 0 1 1h3.763v-1.898a1 1 0 0 1-.523.148H5.745a1 1 0 0 1-1-1zM8.24 8.58a.9.9 0 0 1 .396-.095h.787v-.31c0-.48.156-.926.422-1.286a.872.872 0 0 0-1.605.473z" clip-rule="evenodd"/><path fill="#FFCB6B" fill-rule="evenodd" d="M13.57 9.463h-.328v-.665c0-.918-.733-1.664-1.637-1.664s-1.637.746-1.637 1.664v.665H9.64c-.36 0-.654.3-.654.665v3.327c0 .366.294.665.654.665h3.93c.36 0 .655-.3.655-.665v-3.327a.66.66 0 0 0-.655-.665m-1.965 2.994c-.36 0-.655-.3-.655-.666s.295-.665.655-.665.655.3.655.665a.66.66 0 0 1-.655.666m-1.015-3.66v.666h2.03v-.665c0-.57-.455-1.032-1.015-1.032s-1.015.463-1.015 1.032" clip-rule="evenodd"/></svg>