<svg xmlns="http://www.w3.org/2000/svg" width="16" height="16" fill="none"><path fill="#343944" d="M5.458 8.862c-.516.147-.854.403-1.077.66.214-.187.5-.359.885-.468.394-.112.73-.11 1.009-.057v-.218a2.2 2.2 0 0 0-.817.083m-1.1-1.827-1.914.504s.034.05.1.116l1.622-.428s-.023.296-.223.561c.378-.286.415-.753.415-.753m1.602 4.499c-2.694.726-4.119-2.396-4.55-4.017-.2-.748-.287-1.314-.31-1.68a1 1 0 0 1 .001-.1c-.14.01-.206.082-.193.292.024.365.11.932.31 1.68.431 1.62 1.857 4.742 4.55 4.017a2.74 2.74 0 0 0 1.358-.814 2.8 2.8 0 0 1-1.166.622m.506-6.41v.192h1.057q-.032-.1-.065-.191z"/><path fill="#343944" d="M7.76 6.703c.474.135.726.468.859.763l.53.15S9.075 6.586 8.142 6.32c-.873-.248-1.41.485-1.476.58.254-.181.625-.33 1.092-.197m4.217.768c-.874-.25-1.411.486-1.476.58.255-.182.625-.33 1.093-.197.474.136.725.468.858.763l.53.151s-.073-1.032-1.005-1.297m-.527 2.72L7.044 8.96s.048.241.23.555l3.712 1.037c.305-.177.466-.36.466-.36m-3.055 2.653c-3.49-.936-3.068-5.382-2.504-7.49.233-.868.472-1.513.67-1.946-.118-.024-.216.038-.313.235-.21.427-.48 1.122-.74 2.095-.565 2.107-.987 6.553 2.503 7.49 1.645.44 2.927-.23 3.882-1.282-.907.822-2.064 1.282-3.498.898"/><path fill="#FC8289" d="M6.466 10.492v-.898l-2.493.707s.185-1.07 1.485-1.439c.394-.112.73-.11 1.008-.057v-3.68h1.249a7.5 7.5 0 0 0-.378-.969c-.183-.372-.37-.125-.795.23-.3.25-1.056.784-2.195 1.091-1.14.307-2.06.226-2.444.16-.545-.095-.83-.214-.803.2.023.365.11.932.31 1.68.431 1.62 1.857 4.742 4.55 4.017.704-.19 1.2-.565 1.545-1.043zM2.443 7.539l1.915-.504s-.056.736-.774.926c-.718.189-1.14-.422-1.14-.422"/><path fill="#AEE33E" d="M13.671 5.167c-.497.087-1.691.196-3.166-.2-1.476-.395-2.456-1.086-2.844-1.411-.55-.46-.791-.78-1.03-.297-.21.427-.48 1.123-.74 2.096-.564 2.107-.986 6.553 2.504 7.489 3.489.935 5.346-3.127 5.91-5.235.261-.972.376-1.71.407-2.184.036-.538-.334-.382-1.04-.258M6.66 6.91s.55-.855 1.483-.59 1.005 1.297 1.005 1.297zm2.277 3.839c-1.64-.481-1.894-1.79-1.894-1.79l4.408 1.233s-.89 1.031-2.514.556m1.558-2.69s.55-.854 1.482-.588c.932.265 1.006 1.297 1.006 1.297z"/><path fill="#F07178" d="m5.595 9.842-1.622.46S4.15 9.297 5.344 8.9l-.918-3.447-.08.024c-1.138.307-2.059.226-2.443.16-.545-.095-.83-.214-.803.2.023.365.11.932.31 1.68.43 1.62 1.856 4.742 4.55 4.017l.08-.025zM2.443 7.539l1.915-.504s-.056.736-.774.926c-.718.189-1.14-.422-1.14-.422"/><path fill="#2ECC71" d="m9.01 10.767-.073-.019c-1.641-.48-1.894-1.788-1.894-1.788l2.273.635 1.203-4.624-.015-.004C9.028 4.572 8.05 3.881 7.661 3.556c-.55-.46-.792-.78-1.03-.297-.21.427-.48 1.123-.74 2.096-.564 2.107-.986 6.553 2.504 7.489l.071.016zM6.66 6.91s.55-.855 1.483-.59 1.005 1.297 1.005 1.297z"/><path fill="#C04B41" d="m5.678 9.818-.435.123c.103.58.284 1.136.568 1.627q.075-.015.149-.034.197-.055.372-.128a4.6 4.6 0 0 1-.654-1.588m-.17-4.08c-.224.834-.423 2.035-.368 3.24q.145-.065.318-.116l.08-.018c-.098-1.286.114-2.597.353-3.49q.092-.338.182-.63a6 6 0 0 1-.322.19q-.12.373-.243.824"/></svg>