<svg xmlns="http://www.w3.org/2000/svg" width="16" height="16" fill="none"><g fill-rule="evenodd" clip-rule="evenodd"><path fill="#69A7D3" d="M7.993 11.944q.625.618 1.21.962t1.072.344q.15 0 .3-.035t.272-.12q.435-.252.591-.884.156-.63.007-1.558a8 8 0 0 0-.136-.674q.165-.057.32-.105t.306-.105q.855-.337 1.304-.786.448-.45.448-.97 0-.518-.448-.968-.45-.45-1.304-.786-.15-.057-.306-.112a4 4 0 0 0-.32-.098 9 9 0 0 0 .136-.66q.136-.955-.014-1.593t-.584-.891a1 1 0 0 0-.285-.12q-.15-.035-.3-.035-.475 0-1.066.344-.592.345-1.203.962a6 6 0 0 0-1.196-.962q-.585-.343-1.073-.344-.15 0-.299.035a.8.8 0 0 0-.272.12q-.435.252-.591.884-.157.63-.007 1.558a8 8 0 0 0 .136.674q-.165.057-.32.105a6 6 0 0 0-.306.105q-.855.337-1.304.786-.449.45-.449.97 0 .518.45.968.447.45 1.303.786.15.057.307.112.156.056.319.098a9 9 0 0 0-.136.66q-.136.926.014 1.565t.584.892a1.2 1.2 0 0 0 .571.154q.49.015 1.073-.33.584-.344 1.196-.948m-.625-1.559q.163.015.319.015h.625l.32-.015q-.164.21-.32.4t-.319.372l-.306-.372q-.155-.19-.32-.4M5.983 9.192q.095.154.17.295t.169.281l-.503-.084a8 8 0 0 1-.475-.098 9 9 0 0 1 .156-.47q.089-.245.184-.485a9 9 0 0 0 .299.563zm-.64-2.78a7 7 0 0 1 .476-.098l.503-.085-.164.282-.176.294a8 8 0 0 0-.157.282 5 5 0 0 0-.142.294 6 6 0 0 1-.19-.498q-.082-.247-.15-.47zm.612 1.587q.108-.24.224-.47.115-.23.252-.47l.272-.45.285-.449a6 6 0 0 1 .496-.035 18 18 0 0 1 1.032 0q.252.008.496.035.164.225.292.45.129.225.265.449.136.24.252.47t.224.47l-.224.463-.252.464-.272.45-.285.449a6 6 0 0 1-.496.035 18 18 0 0 1-1.032 0 6 6 0 0 1-.496-.035q-.164-.225-.292-.45-.129-.225-.265-.449a5 5 0 0 1-.252-.464zm4.375-.632-.312-.576a13 13 0 0 0-.156-.288 4 4 0 0 0-.17-.274 8 8 0 0 1 .978.168q-.068.24-.156.485-.089.245-.184.484m0 1.25q.095.239.184.484.088.246.156.47-.23.057-.475.098l-.503.085.164-.282.163-.294q.082-.127.156-.267l.157-.295zm.258 4.015a.4.4 0 0 1-.149.056q-.082.015-.177.015-.407 0-.903-.316a5.6 5.6 0 0 1-.998-.836q.245-.267.482-.569.239-.302.47-.639.393-.042.767-.098.374-.055.727-.154.04.154.068.316l.054.316q.123.731.034 1.236-.088.504-.374.674zm.57-6.094q.952.282 1.482.674t.53.787q0 .336-.375.66-.373.32-1.053.589a4.4 4.4 0 0 1-.584.196 14 14 0 0 0-.543-1.446q.163-.38.306-.744.142-.365.237-.716m-.883-3.257q.083 0 .164.014a.3.3 0 0 1 .15.07q.285.155.38.654.096.498-.027 1.243a7 7 0 0 1-.06.309q-.034.154-.061.322a9 9 0 0 0-.727-.14 19 19 0 0 0-.768-.098 9.6 9.6 0 0 0-.951-1.222q.503-.505.992-.828.49-.324.91-.323zM8.632 5.598q-.163 0-.319-.008a7 7 0 0 0-.625 0 7 7 0 0 1-.32.008q.165-.21.32-.4l.306-.372q.163.182.319.379.156.196.32.394zm-3.22-2.232a.3.3 0 0 1 .149-.07q.081-.014.177-.015.407 0 .903.316.495.317.998.836-.245.267-.482.569a9 9 0 0 0-.47.653q-.393.029-.767.092t-.727.147a4 4 0 0 1-.068-.316l-.054-.316q-.123-.73-.034-1.229.088-.498.374-.667m-.57 6.078q-.952-.266-1.482-.666t-.53-.78q0-.336.375-.666.373-.33 1.053-.597a4.4 4.4 0 0 1 .584-.197q.108.352.244.717.135.364.3.744-.165.364-.307.736a8 8 0 0 0-.237.71m.23 1.278.055-.309.068-.322q.353.084.727.147t.768.105q.231.337.468.639.239.301.483.569a5.6 5.6 0 0 1-.998.835q-.495.317-.904.317a1 1 0 0 1-.17-.015.6.6 0 0 1-.156-.056q-.285-.17-.374-.674-.089-.505.034-1.236"/><path fill="#3965BD" d="M9.04 7.999q0 .435-.307.75a1 1 0 0 1-.74.317.98.98 0 0 1-.728-.316 1.04 1.04 0 0 1-.306-.751q0-.45.306-.766a.98.98 0 0 1 .727-.316q.435 0 .741.316T9.039 8"/></g></svg>