<svg xmlns="http://www.w3.org/2000/svg" width="16" height="16" fill="none"><path fill="#89DDFF" fill-rule="evenodd" d="M7.5 4Q4.9 4 4.25 6.333q.975-1.166 2.275-.875c.494.111.848.433 1.24.79C8.4 6.828 9.138 7.5 10.75 7.5q2.6 0 3.25-2.333-.975 1.167-2.275.875c-.495-.111-.848-.433-1.24-.79C9.85 4.672 9.112 4 7.5 4M4.25 7.5Q1.65 7.5 1 9.833q.975-1.166 2.275-.875c.494.111.848.433 1.24.79C5.15 10.328 5.888 11 7.5 11q2.6 0 3.25-2.333-.975 1.166-2.275.875c-.494-.111-.848-.433-1.24-.79C6.6 8.172 5.862 7.5 4.25 7.5" clip-rule="evenodd"/></svg>