<svg xmlns="http://www.w3.org/2000/svg" width="16" height="16" fill="none"><g fill-rule="evenodd" clip-rule="evenodd"><path fill="#F07178" d="M10.175 5.245q-.341 0-.647.087a1.5 1.5 0 0 0-.539.264q-.23.18-.365.461-.135.28-.135.668 0 .497.246.848.249.351.751.594.198.094.368.184.171.09.293.188.126.097.198.212a.5.5 0 0 1 .072.26q0 .108-.045.203a.45.45 0 0 1-.138.159.7.7 0 0 1-.227.104 1.2 1.2 0 0 1-.318.038q-.31 0-.616-.125a1.8 1.8 0 0 1-.565-.381v1.111q.233.14.55.209.32.07.673.07a2.7 2.7 0 0 0 .653-.077q.31-.075.545-.25.233-.177.368-.459.137-.285.137-.702 0-.303-.078-.528a1.3 1.3 0 0 0-.224-.407 1.7 1.7 0 0 0-.353-.316 3.4 3.4 0 0 0-.46-.268 6 6 0 0 1-.339-.173 2 2 0 0 1-.255-.174.8.8 0 0 1-.16-.188.46.46 0 0 1-.008-.43.5.5 0 0 1 .145-.16.7.7 0 0 1 .228-.101q.135-.04.298-.04.12 0 .251.022.135.021.27.066a1.5 1.5 0 0 1 .497.26V5.436a2 2 0 0 0-.479-.142 3.2 3.2 0 0 0-.592-.048m-4.387.083-1.562 4.983h1.047l.303-1.108h1.526l.305 1.108h1.054L6.934 5.328zm.56.89h-.024q-.015.218-.075.434l-.467 1.689h1.099L6.42 6.666a2.5 2.5 0 0 1-.072-.448"/><path fill="#82AAFF" d="M4.372 3.016q-.868 0-1.255.464-.386.46-.386 1.599v1.233q0 1.057-.6 1.056v1.018q.6 0 .6 1.017v1.327q0 1.134.39 1.577.39.442 1.251.442v-1.034q-.335 0-.485-.227-.147-.226-.146-.768V9.586q0-1.355-.607-1.697v-.023q.607-.347.607-1.676V5.013q0-.963.631-.963zM11.702 3.016V4.05q.63 0 .63.963v1.133q0 1.383.604 1.73V7.9q-.603.332-.603 1.654v1.177q0 .537-.15.758-.15.227-.481.227v1.034q.864 0 1.247-.442.387-.443.386-1.61V9.42q0-1.034.604-1.034V7.368q-.604 0-.604-1.045V5.056q0-1.116-.386-1.576-.387-.465-1.247-.465"/></g></svg>