<svg xmlns="http://www.w3.org/2000/svg" width="16" height="16" fill="none"><g clip-path="url(#a)"><path fill="#C3E88D" d="M6.755 8.467h2.744l-1.46-3.082zM1.93 3.172c-.507.18-.823.689-.759 1.224l.924 7.75c.044.368.262.693.586.873l4.806 2.672c.35.194.776.194 1.126-.002l4.84-2.714c.323-.18.54-.504.583-.87l.923-7.746a1.155 1.155 0 0 0-.767-1.227L8.428 1.13a1.15 1.15 0 0 0-.766.003zm9.073 8.803-.948-2.212H6.187l-.865 2.212h-1.61l4.316-9.704 4.467 9.704z"/></g><defs><clipPath id="a"><path fill="#fff" d="M0 0h16v16H0z"/></clipPath></defs></svg>