<svg xmlns="http://www.w3.org/2000/svg" width="16" height="16" fill="none"><g clip-path="url(#a)"><path fill="#3965BD" d="M6.702 8.467h2.714L7.973 5.385zM1.936 3.17a1.154 1.154 0 0 0-.755 1.222l.914 7.757c.044.366.26.69.581.87l4.741 2.666c.353.198.783.197 1.135-.003l4.775-2.706c.32-.181.534-.504.577-.87l.914-7.75a1.155 1.155 0 0 0-.763-1.225l-5.69-1.999a1.15 1.15 0 0 0-.774.003zm8.969 8.805-.938-2.212H6.141l-.856 2.212H3.693l4.269-9.704 4.417 9.704z"/></g><defs><clipPath id="a"><path fill="#fff" d="M0 0h16v16H0z"/></clipPath></defs></svg>