<svg xmlns="http://www.w3.org/2000/svg" width="16" height="16" fill="none"><g fill-rule="evenodd" clip-rule="evenodd"><path fill="#F78C6C" d="M2.381 13.7V2.299h1.846v1.14h-.923v9.124h.923V13.7zm9.393-10.262v-1.14h1.845v11.404h-1.845v-1.14h.923V3.438z"/><path fill="#FFCB6B" d="M9.023 3.763a1.8 1.8 0 0 1 .703-.122q.427 0 .716.127.288.125.473.374.183.244.265.604.083.357.083.826t-.085.84a1.6 1.6 0 0 1-.264.606 1.16 1.16 0 0 1-.474.366q-.29.123-.714.123a1.8 1.8 0 0 1-.71-.126 1.13 1.13 0 0 1-.477-.369 1.6 1.6 0 0 1-.267-.605 3.8 3.8 0 0 1-.082-.833q0-.484.085-.84.084-.357.27-.605a1.13 1.13 0 0 1 .478-.366m-3.088.193a.5.5 0 0 0 .074-.25h.825v3.075h.767v.648H5.12v-.648h.784V4.818h-.783v-.606q.18 0 .344-.02a1 1 0 0 0 .274-.075.46.46 0 0 0 .195-.161m3.791.37q.307 0 .44.288.13.285.131.958 0 .666-.135.958-.134.29-.436.29-.301 0-.437-.29-.134-.293-.134-.954 0-.678.132-.962a.45.45 0 0 1 .44-.287M5.57 8.617a1.8 1.8 0 0 1 .704-.122q.426 0 .716.127.289.124.473.374.182.245.265.603.082.357.082.826t-.085.84a1.6 1.6 0 0 1-.264.607 1.16 1.16 0 0 1-.474.366q-.289.122-.713.123-.417 0-.71-.125a1.13 1.13 0 0 1-.477-.37 1.6 1.6 0 0 1-.268-.606 3.8 3.8 0 0 1-.082-.833q0-.483.085-.84t.27-.603q.184-.245.478-.367m3.892-.057h.825v3.074h.766v.649H8.574v-.649h.783V9.671h-.783v-.607q.18 0 .344-.02a1 1 0 0 0 .275-.074.46.46 0 0 0 .194-.162.5.5 0 0 0 .075-.25m-2.75.908a.45.45 0 0 0-.438-.288.45.45 0 0 0-.44.288q-.13.285-.13.962-.001.66.133.953.135.291.437.291.301 0 .437-.291.134-.292.133-.958 0-.673-.131-.957"/></g></svg>