<svg xmlns="http://www.w3.org/2000/svg" width="16" height="16" fill="none"><path fill="url(#a)" fill-rule="evenodd" d="M2.4 2h4.2L8 3.375h5.6c.77 0 1.4.619 1.4 1.375V5H8a2 2 0 0 0-2 2v6H2.4c-.77 0-1.4-.619-1.4-1.375l.007-8.25C1.007 2.619 1.63 2 2.4 2" clip-rule="evenodd"/><path fill="#69A7D3" fill-rule="evenodd" d="M8.222 6.222a1 1 0 0 0-1 1v6.556a1 1 0 0 0 1 1h6.556a1 1 0 0 0 1-1V7.222a1 1 0 0 0-1-1zm4.916 2.722a.5.5 0 0 0-.832-.555l-2.444 3.667a.5.5 0 0 0 .832.555z" clip-rule="evenodd"/><defs><linearGradient id="a" x1="4.5" x2="9" y1="3.5" y2="11.5" gradientUnits="userSpaceOnUse"><stop stop-color="#90A4AE"/><stop offset="1" stop-color="#90A4AE" stop-opacity=".4"/></linearGradient></defs></svg>