<svg xmlns="http://www.w3.org/2000/svg" width="16" height="16" fill="none"><path fill="#FC8289" d="M8.004 13.457 10.21 6.73H5.796z"/><path fill="#FFCB6B" d="M8.004 13.457 5.796 6.73H2.7z"/><path fill="#E2AC1D" d="m2.701 6.729-.67 2.044a.45.45 0 0 0 .165.506l5.808 4.178z"/><path fill="#FC8289" d="M2.701 6.728h3.095l-1.33-4.052c-.069-.209-.367-.209-.435 0z"/><path fill="#FFCB6B" d="M8.004 13.457 10.21 6.73h3.095z"/><path fill="#E2AC1D" d="m13.306 6.729.67 2.044a.45.45 0 0 1-.165.506l-5.807 4.178z"/><path fill="#FC8289" d="M13.306 6.728h-3.094l1.33-4.052c.068-.209.366-.209.434 0z"/></svg>