<svg xmlns="http://www.w3.org/2000/svg" width="16" height="16" fill="none"><path fill="#3965BD" fill-rule="evenodd" d="M13 4a1 1 0 0 0-1-1H4a1 1 0 0 0-1 1v8a1 1 0 0 0 1 1h8a1 1 0 0 0 1-1zm-4.13 6.655-.203.736q.187.09.52.167.335.078.708.078.888 0 1.314-.364.427-.365.427-.863 0-.425-.272-.71-.274-.287-.85-.48a3.7 3.7 0 0 1-.61-.26q-.188-.112-.188-.298 0-.156.155-.272.154-.115.472-.115t.545.067a3 3 0 0 1 .358.127l.22-.722a2.7 2.7 0 0 0-.468-.141 3 3 0 0 0-.639-.06q-.765 0-1.204.343-.44.341-.44.848 0 .43.33.717t.866.465q.39.12.558.246.165.126.166.305a.36.36 0 0 1-.175.312q-.174.12-.508.12-.318 0-.607-.075a2.3 2.3 0 0 1-.475-.17zM6.54 8.238v3.398h.862V8.238h1.265v-.693H5.273v.693z" clip-rule="evenodd"/></svg>