<svg width="16" height="16" viewBox="0 0 16 16" fill="none" xmlns="http://www.w3.org/2000/svg">
<path d="M6.00653 4.57129L4.83006 6.14272L4.24183 5.14272L6.00653 4.57129Z" fill="#E0AF00"/>
<path d="M6.00654 4.57129L5.15686 5.357L4.83007 6.14272H4.43791V9.78558H5.02614L4.30719 10.1427L3.78431 11.357H3V4.57129H6.00654Z" fill="#E0AF00"/>
<path d="M5.02615 9.78564L3.78432 11.3571L3.26144 10.5714L5.02615 9.78564Z" fill="#E0AF00"/>
<path d="M6.66013 4.57129L7.05229 5.57129L5.4183 6.14272L6.66013 4.57129Z" fill="#E0AF00"/>
<path d="M6.66013 4.57129H10.2549V6.14272H5.4183L6.66013 5.28557V4.57129Z" fill="#E0AF00"/>
<path d="M10.5817 9.78564L9.33987 11.3571L8.88235 10.4285L10.5817 9.78564Z" fill="#E0AF00"/>
<path d="M10.5817 9.78564L9.53595 10.4285L9.33987 11.3571H5.7451V9.78564H10.5817Z" fill="#E0AF00"/>
<path d="M12.8039 3L6.3987 11.3571L3.19608 13L9.60131 4.57143L12.8039 3Z" fill="#E0AF00"/>
<path d="M12.2157 4.57129L12.1503 5.857L10.9739 6.21415L12.2157 4.57129Z" fill="#E0AF00"/>
<path d="M13 4.57129V11.357H9.92811L10.8431 10.4999L11.1699 9.78558H11.5621V6.21415H10.9739L11.6275 5.57129L12.2157 4.57129H13Z" fill="#E0AF00"/>
<path d="M11.1699 9.78564L11.4967 10.8571L9.92811 11.3571L11.1699 9.78564Z" fill="#E0AF00"/>
</svg>
